<svg xmlns="http://www.w3.org/2000/svg" xml:space="preserve" style="fill-rule:evenodd;clip-rule:evenodd;stroke-linejoin:round;stroke-miterlimit:2" viewBox="0 0 838 816"><path d="m492.5 112.678 2.988.097c2.722-.01 2.692.008 34.016-.005l1.995-.115c7.496 1.023 7.442 1.058 15.007 1.142l2.03.265c10.141.802 10.064 1.106 30.022 3.957 3.057.473 2.938.584 6.015 1.032.403.074.3.138 5.007 1.106.381.073 12.793 2.812 13.014 2.856 2.071.483 2 .53 4.017 1.012l4.001 1.015c.322.077.294.137 3.987 1.105l3.982 1.053c.244.061.125.073 3.031.846 1.953.447 1.837.473 3.821.729 2.113.938 2.019.97 3.192 1.316l2.993.948c6.234 1.489 8.417 2.816 9.025 3.046l2.992.966 3.004 1.017 3.009 1.04c5.995 1.753 34.214 13.822 36.986 16.121.25.208.421-.376 3.848 1.311l1.991 1.014c1.565 1.268 8.208 4.744 8.939 5.126 1.055.553 1.002.427 2.057.877.886.734.792.732 1.97 1.059 2.219 1.995 2.72 1.142 4.958 3.087 6.307 4.034 9.248 5.422 10.091 5.819 2.724 2.387 4.834 3.224 7.117 4.824 2.276 1.922 2.543 1.436 4.844 3.234 2.026 1.582 5.937 4.106 5.938 4.107.413.301.384.15 5.226 3.67 2.75 2.448 3.124 1.815 5.733 4.369 3.67 2.864 3.684 2.684 7.291 5.613 2.926 2.712 4.367 3.099 4.814 3.219 3.086 3.533 3.003 3.572 7.001 5.999 2.677 2.986 2.559 3.082 6.005 4.988l.969 1.038c4.822 5.73 4.757 5.734 11.015 9.979.107.109 4.606 4.593 5.007 4.992 4.013 5.796 13.21 14.496 14.987 16.006.589.971 2.671 4.404 8.903 11.07.986 1.054.991.929 2.104 1.923.469.782 3.212 5.351 6.898 9.081l.348.721c2.732 3.734 2.5 3.847 5.758 7.193 1.151 2.322 1.194 2.207 3.005 3.995.172.734.378 1.615 5.031 7.97 1.072 1.464.877 1.493 1.984 3.01.285.39.008.455.31.786.485.534.402.504.876 1.096.43.641.359.573.768 1.145.274.383.006.465.313.794.51.546.404.531.845 1.111 2.741 4.109 6.541 11.224 8.902 14.058l.221.885c5.002 9.031 4.89 9.03 5.756 10.127l.189.904c3.086 5.384 5.255 11.245 7.494 14.219.348 1.153.308 1.099 1.017 2.021l1.152 1.926.158.922c2.503 5.53 2.216 5.542 4.655 11.116.948 2.699 1.317 2.847 3.221 7.933.902 2.407.77 2.366 1.618 4.767.463 1.212.49 1.135 1.248 2.254.188 1.007 2.173 8.266 4.031 10.99.982 5.448 1.801 5.609 1.972 5.994.282 2.111.285 2.015.975 3.982.383 1.616.395 1.498 1.029 3.016.374 2.089.407 1.97 1.011 3.992l.712 2.825c.485 2.039.545 1.951 1.012 3.991.753 2.82.742 2.804.813 3.045.186.63.294.531.47 1.127l1.016 4.002.955 3.993c.191 1.127 1.652 9.742 2.969 13.974.272 2.106-.085 2.121 1.014 6.011.961 6.65.837 7.798 2.111 10.978l-.071 1.015c.277 3.575.202 3.504.993 7.004.285 4.064.123 4 1.051 7.983l-.047 1.001c.278 5.042-.077 5.011 1.09 9.989l-.09 2.99c.242 22.524.22 22.442.043 45.023l.051 3.993c-.944 4.967-.804 4.906-1.045 9.994l.035 2.004c-.069.273-.719.158-1.08 7.993l-.253 1.068c-.383 3.057-2.045 16.326-6.777 37.904-.65 1.998-.593 1.927-.973 3.993l-.998 3.991c-.189.632-.308.527-.486 1.123-.072.242-.06.226-.814 3.041l-.68 2.831c-.184.604-.302.498-.497 1.138-.073.24-.059.225-.791 3.037-.08.322-.112.201-1.173 3.97l-.521 2.853c-.957 2.173-.981 2.072-1.309 3.189l-.689 2.81c-.679 2.172-.555 2.114-1.442 4.169l-.6 2.8c-.151.298-.349-.032-.47.205-.08.158-.063.151-.855 2.04l-.678 2.753c-1.005 1.425-8.04 20.603-13.106 30.897-11.071 22.493-12.627 24.98-13.918 27.043-.976 1.559-.64 1.701-1.863 3.062-5.281 7.742-7.328 11.976-7.859 13.075-1.268 1.321-.865 1.548-2.151 2.912-2.504 3.507-2.174 3.637-4.652 7.221-.318.372-.28.37-2.363 3.72-.178.287-.357.032-2.73 3.222-.294.373.013.447-.26.792-.071.09 0 0-1 1.029-2.911 4.01-3.302 3.758-3.838 6.103-1.505 1.371-2.297.846-2.997 4.003-1.742 1.611-2.387 1.186-2.998 4.002-3.344 2.738-3.09 2.885-5.804 6.176-2.972 3.158-3.053 3.036-5.211 6.809l-1.128.874c-6.58 6.29-6.607 7.758-6.858 8.138-4.078 4.029-3.982 3.978-8.034 7.967l-1.078.907c-7.178 6.584-10.118 10.14-10.911 11.1-.988 1.015-1.811 1.872-1.968 2.035-3.577.924-9.354 8.13-10.027 8.97-3.396 2.057-3.29 2.113-5.991 5.008l-.979 1.025c-2.566.584-2.312.997-4.136 2.861l-.898 1.102c-2.254 1.191-2.253 1.073-4.076 2.907l-.905 1.113c-2.969.675-2.529 1.368-3.999 2.999-2.738.613-2.406 1.088-3.999 3.003-2.727.637-6.509 4.519-6.989 5.012-.458.093-1.711.348-5.046 2.929-2.376 1.838-2.551 1.383-4.883 3.184-2.691 1.821-2.696 1.679-5.088 3.865-.244.046-1.771.337-2.858 1.215-2.712 1.824-2.78 1.842-3.059 1.918-.673.184-1.797 1.011-1.942 1.117-2.169 1.26-2.253 1.06-4.104 2.803l-1.041.941c-3.671.682-4.584 2.54-5.039 2.906-3.112 1.497-3.016 1.446-6.025 2.979-2.799.586-4.555 2.047-5.9 3.171-1.124.288-1.067.307-1.993 1.014-.2.151-.302-.135-2.88 1.247-.196.105.006.533-.189.638l-2.7.571c-5.809 3.299-5.864 3.014-6.358 3.306-1.696 1.001-18.658 8.268-19.765 8.508-9.222 4.222-9.352 3.729-18.978 7.085l-3.021.964c-2.45 1.115-2.429.875-5.061 1.822-1.073.326-.977.386-2.107.684-1.546.408-1.476.441-3.004.898-2.061.417-1.99.36-3.989 1.04-2.079.445-2.005.476-3.992 1.105l-1.846.447c-.381.182-.269.456-3.044.959-2.626.652-2.51.817-5.128 1.466-2.036.41-1.967.43-3.989 1.005-2.049.4-1.985.42-4 .987l-3.992.979c-2.574.401-2.545.254-4.998 1.025-3.612.563-3.599.515-3.9.608-5.945 1.84-28.551 4.23-32.078 5.53l-3.003-.066c-4.102.169-4.022.17-7.996 1.045l-4.996-.057c-7.055.252-6.998.25-14.004 1.085-13.504-.066-13.447-.076-27.001.022-6.483-1.081-6.447-.883-13.007-1.099l-3.993.066c-3.948-1.069-3.925-.861-7.997-1.063l-3.003.063c-3.429-.983-3.362-.881-6.988-1.068l-1.007.057c-1.829-.668-1.797-.443-23.984-4.155-2.484-.743-2.443-.606-5.003-1.003-.48-.143-2.052-.609-6.095-1.378l-3.888-.649-3.001-.855c-1.985-.598-1.912-.632-4.002-1.053-.629-.157-.527-.288-1.12-.436-.32-.079-.298-.068-4.012-.926-1.971-.468-1.858-.502-3.807-.734-2.825-1.258-2.792-1.268-3.194-1.388l-1.87-.43-3.97-1.132-3.02-.905c-1.548-.507-2.968-1.376-6.969-2.083l-2.014-.963c-.96-.32-11.603-3.865-11.99-4.035-.782-.36-.89-.049-9.969-4.033-3.657-1.605-3.489-1.715-7.263-3.296-5.682-1.655-13.666-6.742-16.841-7.428l-2.013-.974-2.008-.983-1.993-1.018c-.946-.731-.849-.721-2.001-.996-.195-.1.002-.529-.193-.629-.998-.516-1.371.224-3.951-2.132-.786-.717-3.383-1.441-3.69-1.527-.933-.733-.857-.707-1.987-1.065-2.002-1.458-2.075-1.168-4.242-2.547-.141-.109-1.266-.979-1.911-1.15-.173-.046-1.027-.273-1.936-1.116-1.973-1.295-1.843-1.511-4.039-1.917l-1.052-.922c-1.748-1.546-1.673-1.719-3.957-2.066l-.852-.243-1.181-1.712c-2.338-.806-4.556-2.857-4.899-3.174-3.751-2.567-3.708-2.527-5.068-2.869l-1.036-.951c-.845-.761-.789-.752-1.961-1.053l-.853-.255c-.87-2.923-5.007-3.888-7.054-5.882-1.478-1.139-1.447-1.023-3.099-1.854-1.758-1.839-1.682-1.875-3.999-3.002l-1.044-.94c-.834-.771-.762-.763-1.953-1.063-1.252-1.512-1.517-3.222-5.024-3.972l-.967-1.036-.946-1.061c-1.785-1.852-1.789-1.743-4.057-2.936-1.216-1.464-2.82-4.196-6.02-4.978l-.98-1.023c-4.841-5.385-4.691-5.572-9.011-7.985-.157-.163-.982-1.019-1.974-2.029-4.786-5.784-9.17-9.335-12.898-13.08-2.418-2.681-2.344-2.647-4.994-5.044l-1.115-.864c-2.898-4.51-2.981-4.346-7.005-7.994l-1.028-.975c-.795-3.33-5.304-6.451-5.982-7.016-.414-.812-2.149-4.226-6.956-9.031-.538-.538-.503-.467-1.044-.968-.638-2.523-1.012-2.292-2.849-4.137-1.331-2.126-1.305-2.042-3.151-3.863-.822-3.375-1.69-2.78-3.001-3.999-.551-2.459-4.505-6.517-4.985-7.01-.446-1.891-.712-1.658-2.006-2.995-.427-1.834-.694-1.643-1.987-3.009-.387-2.257-.537-2.187-2.066-3.954-.119-.133.05-.158-1.083-1.953a384 384 0 0 0-1.976-3.007c-2.102-3.128-1.691-3.408-3.932-6.046l-.955-1.033c-.044-.246-.323-1.784-1.165-2.901-16.757-27.407-26.54-55.836-28.288-60.917-.487-1.251-.524-1.174-1.292-2.251-.913-5.094-1.88-5.631-2.035-5.975-.371-2.086-.414-2.01-1.039-3.991l-.983-3.005-.949-2.994-.725-2.814c-.094-.339-.11-.254-1.35-4.179l-.688-2.831c-.085-.338-.102-.266-1.237-4.167l-1.002-4.002-1.066-3.995-.964-3.992c-.364-2.021-.723-5.082-1.939-8.991-4.53-27.722-4.306-27.685-5.109-29.981l.048-1.016c-.368-4.029-.209-3.995-.934-7.978-.314-6.57.006-6.523-1.139-12.996l.125-1.998c-.293-21.079-.212-20.987-.005-42.012l.228-2.015c.516-6.063.528-5.958.743-11.96l.261-1.058c.65-6.895 4.204-31.896 6.342-39.999l.433-2.933c.125-.402.635-2.044 1.237-5.12.471-2.121.521-1.991.989-4.021.477-2.092.523-1.986.988-4.007.076-.322.128-.231 1.06-3.999l.683-2.823c.185-.602.313-.491.509-1.129.074-.241.062-.226.833-3.039l.663-2.827c.61-1.973.646-1.901 1.018-3.996 1.008-2.281 1.016-2.162 1.323-3.185l1.008-3.008 1.032-2.995c.858-2.473.74-2.396 1.573-4.819.645-1.974.681-1.901 1.077-3.974.615-1.333.167-1.436 6.901-17.005 3.307-7.645 3.617-7.399 6.755-15.101l1.075-2.966 1.008-1.995c.426-.83 4.515-8.788 5.712-10.157.777-.889.267-1.122 1.029-1.978.218-.246 2.06-4.486 2.231-4.88l.182-.911c.102-.121.28.102 1.511-1.278.771-.865.298-1.104 1.097-1.937.172-.179-.632-.593 1.407-2.769 4.392-6.919 4.685-8.255 4.861-9.059l.274-.84c1.846-.647 1.444-1.063 3.614-4.238l.218-.859c1.606-1.741 2.123-1.719 2.891-5.065l.277-.839c1.503-.518 1.375-.683 1.72-2.163 1.544-1.484 1.536-1.384 2.829-3.129 1.79-2.084 2.094-3.526 2.167-3.873l.26-.853c1.741-.536 1.478-.857 2.554-2.289.259-.305.212-.295 2.996-4.01 1.969-2.245 2.428-1.963 3.199-4.837 2.126-1.871 2.032-1.844 3.809-4.16 1.945-2.184 1.842-2.149 3.198-4.835 1.564-1.439 4.164-2.925 4.969-6.021l1.042-.964c5.416-4.485 4.841-4.959 5.965-7.029l1.033-.975c3.536-3.076 23.838-23.642 24.992-24.992l.985-1.023c.356-.227 3.289-1.095 9.03-7.966l.962-1.042c2.9-1.525 2.771-1.61 4.998-3.994 3.406-.902 4.22-3.071 5.004-3.997 3.419-.892 4.195-3.076 4.995-4.006 3.341-.797 2.727-1.656 3.999-2.999.345-.08 1.831-.424 3.854-2.187 1.911-1.409 5.483-3.648 9.259-6.64.575-.555 4.185-2.723 5.947-4.06.929-.704.972-.514 1.87-1.206 2.895-2.049 2.925-1.942 14.124-8.77.27-.235.464.225 3.852-2.284 1.239-.773 5.574-2.89 8.064-4.881l.896-.2c4.901-2.715 14.804-7.518 16.172-8.641 2.796-.607 5.944-2.643 13.053-5.838 11.682-5.248 27.918-10.645 29.956-12.036 1.591-.305 1.518-.334 2.993-1.014 2.08-.375 2.012-.41 3.983-1.044l2.806-.705 2.987-.996 3.02-.902c2.53-.759 2.468-.808 4.014-1.115l3.02-.853c.61-.171.52-.258 1.166-.438.223-.063.208-.053 2.815-.704.335-.084.282-.095 4.148-1.216l3.999-.997 3.872-.776c2.038-.472 1.964-.524 3.991-1.002.652-.131.519-.198 1.148-.324.231-.046.214-.038 2.891-.51.631-.126.476-.266 1.086-.388.311-.063.29-.047 3.914-.635.561-.1.452-.261 1.078-.373.391-.07.363-.059 4.908-.792.402-.066.378-.144 5.004-.941 3.044-.474 2.964-.584 6.001-1.054 12.079-1.628 12.99-1.933 14.071-2.296l1.001.094c8.237-.278 8.136-.892 8.991-1.14l3.002.063c12.377-.065 12.221-.927 13.002-1.071" style="fill-opacity:1" transform="translate(-94 -88)scale(1.00293)"/><path d="m497.428 724.611.685.97c-.237.125.48.642.243.768-1.523.804-17.565 3.237-27.427 18.418-5.25 8.082-5.424 18.877-8.457 17.845-2.492-.848-18.931-9.568-20.602-12.357-1.475-2.46-13.099-41.328-16.965-63.82-3.457-20.11-3.626-20.315-4.759-21.682-9.736-11.749-21.716-23.338-17.261-54.208 2.509-17.384 4.835-25.427.647-24.827-3.452.493-5.624 34.622-6.862 34.992-1.676.501-14.832-8.205-15.875-12.287-5.94-23.256-.92-26.248-10.103-32.21-10.176-6.607-10.611-13.775-11.084-27.68-.261-7.65 4.763 12.003 26.039 22.662 33.676 16.871 66.874-3.093 75.844-3.793 1.661-.129 3.332-.069 4.997-.122 7.619-.241-1.621-13.141-23.987-14.795-28.574-2.113-51.279 4.815-64.987-12.992-2.636-3.424 1.877-1.463 2.059-1.384 29.693 12.905 77.767-4.933 99.676 23.578 5.662 7.369 5.725 42.515 3.014 47.683-.443.844-17.014 21.955-7.294 36.805 3.625 5.538 26.732 8.714 27.382 19.34.378 6.183.104 7.358 6.123 9.064 8.034 2.277 13.648-2.542 14.114-6.065 1.598-12.072 6.056-12.459 21.805-18.279 11.747-4.342 10.429-22.125 3.844-32.566-4.491-7.121-6.788-7.948-6.834-16.168-.208-37.327 2.073-38.875 10.101-45.996 23.776-21.09 49.33-2.836 94.982-18.107 1.821-.609 1.903 1.022 1.877 1.06-18.063 26.088-66.536 3.69-88.811 21.105-3.928 3.072-4.61 7.089-1.938 7.472 11.974 1.718 11.888 1.868 24.022 6.116 15.418 5.398 48.259 9.987 69.59-9.951 9.564-8.938 14.596-19.692 14.342-13.715-.823 19.36-2.055 20.025-12.774 27.464-5.23 3.629-3.087 5.035-7.576 26.488-1.43 6.835-1.176 7.552-11.385 14.556-5.177 3.553-5.677 2.81-5.838 2.333-.124-.367.034-.339-.589-4.812-2.906-20.851-3.174-33.211-7.627-29.637-3.56 2.858 7.807 32.319 1.338 52.507-7.28 22.72-15.504 20.377-17.763 32.087-1.23 6.379-10.468 54.287-19.139 78.911-.928 2.635-22.618 16.653-23.842 12.171-5.872-21.501-9.641-26.957-32.692-35.309l-.81-1.442c10.717-3.63 17.902-5.684 24.277-15.502 4.228-6.511-6.152-1.596-8.64-.775-20.242 6.672-48.487 3.947-58.912.684-8.255-2.584-12.533-6.049-10.248-1.67 6.483 12.428 21.972 16.312 24.08 17.072" style="fill:#fcfcfc" transform="translate(-94 -88)scale(1.00293)"/><path d="M366.865 498.522c.133-.865.984-6.389 4.806-9.838 5.988-5.404 5.064-6.167 5.672-14.208.533-7.05 63.165-26.774 89.395-1.226 4.581 4.461 11.389-2.22 3.588-6.411-27.149-14.588-28.786-10.489-41.784-12.602-9.023-1.467-18.508-51.596-11.941-53.313 12.479-3.264 12.745-3.19 22.119-12.175 1.077-1.032 4.621 1.236 4.971 1.46 9.213 5.894 24.242 7.994 37.74-2.794 4.045-3.234 4.522-1.462 7.374.666 7.606 5.678 30.409 13.178 48.375-.98 6.243-4.919 6.342 3.434 18.274 6.562 20.619 5.406 28.72-8.048 31.573-4.723 11.421 13.308 19.162 10.112 22.228 12.047 2.027 1.28 2.282 23.309-4.163 39.332-6.578 16.353-9.591 14.011-11.593 14.168-24.552 1.921-28.024 7.621-40.031 12.946-6.748 2.992.176 10.706 4.663 5.726 14.174-15.73 57.563-17.584 88.089-1.179 2.91 1.564 1.349 2.439 1.641 9.494.165 3.997 7.615 8.455 9.22 11.287 1.938 3.42 1.108 9.509 1.073 9.584-1.009 2.169-24.289-9.195-49.658-9.64-40.723-.715-58.384 20.724-63.668 26.117-17.256 17.61-8.363 28.049-15.35 25.749-28.074-9.239-29.706 2.065-36.039.046-4.991-1.591 5.772-10.014-22.302-34.695-19.095-16.787-49.039-20.712-76.694-14.664-17.738 3.879-27.551 10.203-27.622 6.201-.017-.979.061-1.958.044-2.937" style="fill:#fdfdfd" transform="translate(-94 -88)scale(1.00293)"/><path d="M750.495 482.473c-18.718 13.683-21.117 78.461-24.147 79.717-.572.236-25.508-1.39-25.864-4.687-.408-3.764 6.709-70.116 12.884-68.55 5.414 1.373-3.007 24.222-.836 26.517.325.344 12.534 6.156 13.843 5.727 1.727-.567 2.995-10.26 8.58-26.544 1.422-4.144 3.403-6.641-.672-8.736-10.987-5.651-21.14-8.942-15.34-18.114.887-1.403 19.326-14.043 28.1 1.949 4.308 7.852 2.519 9.503 10.306 14.009 31.972 18.502 27.441 25.858 28.607 36.698.37 3.442 5.79 39.746-.291 75.069-3.163 18.376-8.646 34.631-39.112 43.163-4.018 1.125-5.25.494-7.834-8.255-8.952-30.31-2.059-104.182 12.199-144.852.639-1.821.743-1.817.624-2.088-.195-.447-.851-.576-1.047-1.023" style="fill:#fafafa" transform="translate(-94 -88)scale(1.00293)"/><path d="M273.086 480.256c.192.623 1.452.437 1.644 1.06.148.479-.797.685-.96 1.159-.118.344.313.729.195 1.073.568 2.717.544 2.704.613 2.934 5.386 17.819 5.247 17.784 8.904 36.022 8.093 40.352 10.259 95.289.632 114.775-2.599 5.261-25.892-5.73-33.447-13.94-23.461-25.491-10.594-113.293-10.528-113.882 1.311-11.861 28.932-25.345 32.947-29.201" style="fill:#f9f9f9" transform="translate(-94 -88)scale(1.00293)"/><path d="M517.446 416.846c48.814 11.859 28.61 84.385-14.797 71.183-32.965-10.027-32.385-74.612 14.797-71.183" style="fill:#070707" transform="translate(-94 -88)scale(1.00293)"/><path d="M497.578 732.913c.373-.057 26.51-5.939 43.636 5.961 12.992 9.027 13.889 31.083 13.399 33.649-.85 4.45-36.525 12.771-71.18 5.269-11.819-2.559-13.522-3.291-13.03-9.3 2.481-30.288 20.804-33.552 27.175-35.579" style="fill:#fbfbfb" transform="translate(-94 -88)scale(1.00293)"/><path d="M503.614 641.19c-8.039-3.941-8.542-5.393-9.038-32.692-.082-4.479-.99-54.393-.886-55.988.268-4.098 16.795-8.166 25.753-5.744 11.675 3.157 12.033 4.358 11.918 8.729-.808 30.532.175 75.3-3.173 80.831-5.901 9.747-22.635 5.371-24.574 4.864M664.964 720.474c-.064-2.988-.635-9.943.812-13.872.776-2.109 7.485-16.528 8.223-17.836 12.116-21.502 10.28-23.41 13.552-24.036 6.254-1.198.758 10.667-.616 23.812-1.214 11.615-6.325 35.218 1.588 38.915 8.419 3.934 5.411-12.713 8.724-32.003 3.948-22.989 5.299-23.234 7.25-23.282 10.576-.26 11.703-.449 11.922 2.335 2.264 28.764-1.818 47.048-2.708 51.038-5.447 24.4-25.111 26.863-33.076 23.643-14.398-5.821-15.327-26.292-15.671-28.714M337.045 683.553c-3.059-17.682-2.675-18.028-1.436-18.859 2.381-1.596 5.464 4.349 5.742 4.884 18.687 36.036 18.7 37.347 18.737 40.949.509 49.842-31.445 45.503-44.198 26.716-4.526-6.668-7.87-28.585-7.978-36.753-.367-27.68.278-28.908 2.585-28.776.886.05 11.02.627 11.07.646 2.474.954 6.34 25.024 7.458 33.197 1.121 8.203-.228 25.754 7.398 21.779 7.909-4.123 4.025-21.521.622-43.783" style="fill:#fcfcfc" transform="translate(-94 -88)scale(1.00293)"/><path d="M527.43 479.393c-27.364 15.558-47.682-12.522-42.829-29.861.752-2.687 3.817-20.618 21.979-25.717 24.735-6.944 51.726 32.416 20.85 55.578" style="fill:#eaeaea" transform="translate(-94 -88)scale(1.00293)"/><path d="M400.507 537.407c-1.859-.235-15.192-1.924-22.802-5.346-8.946-4.023-8.598-5.786-8.432-6.628.254-1.287 52.98-42.399 90.921 2.324 3.032 3.574 11.847 18.431 6.309 16.724-28.715-8.851-29.31-4.871-65.996-7.074M654.28 523.787c.602.623 4.481 2.509-2.91 6.482-26.95 14.49-55.912 1.213-92.885 14.168-6.004 2.104 3.672-17.17 16.332-26.519 26.945-19.898 59.049-7.198 73.468 1.929.485.307.413.281 5.995 3.94" style="fill:#fcfcfc" transform="translate(-94 -88)scale(1.00293)"/><path d="M273.086 480.256c2.527-4.748 2.383-4.727 4.774-9.567 8.002-16.197 26.555-5.069 28.453-2.066 5.155 8.156 1.04 8.964-7.559 13.364-7.399 3.787-11.655 2.524-9.362 10.543 7.648 26.754 6.296 27.364 8.034 29.033.861.826 1.327 1.273 13.877-5.452 3.569-1.912-.923-15.438-.339-23.589.027-.369 1.566-9.291 4.619-.05 1.549 4.686 4.253 12.87 9.182 61 .67 6.536-1.764 6.008-8.286 6.882-14.045 1.882-18.629 3.027-19.115-.832-.795-6.309-9.974-79.15-23.399-75.974.118-.344-.313-.729-.195-1.073.163-.474 1.108-.68.96-1.159-.192-.623-1.452-.437-1.644-1.06" style="fill:#fbfbfb" transform="translate(-94 -88)scale(1.00293)"/><path d="M496.43 472.577c-20.489-22.709-.801-51.076 21.107-46.259 37.549 8.256 15.6 73.449-21.107 46.259" style="fill:#020202" transform="translate(-94 -88)scale(1.00293)"/><path d="M377.882 431.529c.198-1.536 1.858-14.413 3.656-19.014.712-1.82 16.494-12.72 18.967-12.715 6.81.017 9.446-1.112 9.56 5.705.485 28.745 5.295 34.352 9.592 46.955 1.055 3.093-1.007 2.179-4.212 2.724-31.918 5.42-33.066 10.925-36.973 10.463-3.152-.373-.797-31.396-.59-34.118M646.077 424.551c.444 3.09 2.323 16.183 1.687 38.984-.132 4.756-2.785-.185-26.187-6.342-6.07-1.597-17.374-1.678-16.314-4.748 3.854-11.174 9.694-18.522 9.886-45.943.027-3.931-.776-5.874 5.333-6.27 10.051-.651 9.041 2.714 17.829 7.597 6.389 3.551 6.033 6.842 7.766 16.722" style="fill:#fcfcfc" transform="translate(-94 -88)scale(1.00293)"/><path d="M523.499 837.479c-6.618.234-38.221 2.35-71.841-9.406-4.318-1.51-3.71-4.421-3.019-11.557.518-5.349 3.418-2.585 30.9 2.793 28.412 5.56 28.49 9.397 42.007 5.352 13.806-4.133 47.766-10.429 51.947-11.204 1.551-.287 3.857-.544 3.795 11.037-.012 2.362-.023 4.43-27.797 9.961-8.904 1.773-23.904 2.871-25.992 3.024M369.759 688.374c-6.159-13.396-6.349-13.294-7.503-16.849-.083-.256-.825-2.54 3.225-.975 6.209 2.401 16.502 49.489 63.26 81.464 10.355 7.081-30.851-66.019-36.761-81.68-.798-2.117.13-3.194 9.695-11.623 4.652-4.1 7.627 2.227 10.277 5.407 6.627 7.954 3.982 9.163 9.525 34.387 7.343 33.419 8.481 33.073 11.175 43.956 1.58 6.384 7.316 22.033-1.173 17.076-36.248-21.165-58.299-64.449-61.72-71.163M627.498 662.503c1.441 1.15 7.181 4.533 5.708 7.875-14.672 33.296-48.886 90.68-34.977 80.701 46.151-33.111 55.311-78.968 61.252-80.643 6.59-1.857 2.652 3.539 1.651 5.906-23.889 56.453-67.726 87.522-71.419 82.981-2.666-3.279 4.562-18.535 10.739-46.834 3.493-16.003 3.909-15.838 8.091-39.981 1.014-5.853 10.456-15.494 12.009-15.229.685.117.725.124 6.946 5.224" style="fill:#fafafa" transform="translate(-94 -88)scale(1.00293)"/><path d="M286.131 611.469c-1.346 15.213-1.572 18.208-7.508 16.574-6.014-1.655-21.857-7.325-19.212-12.587 14.297-28.442 1.848-70.551 5.106-72.927 1.034-.755 1.128-.065 15.963-1.255 3.392-.272 3.548 3.961 5.129 21.216 1.395 15.206 1.983 29.995.522 48.979M739.907 559.54c.404-3.606 1.65-17.106 2.663-17.962.117-.098.134-.606 16.929.932 5.306.486-2.851 17.152-.16 47.002 1.46 16.199 2.06 17.202 6.714 26.218 2.921 5.66-18.198 12.453-21.543 12.878-5.761.733-8.067-30.255-4.603-69.068" style="fill:#010101" transform="translate(-94 -88)scale(1.00293)"/><path d="M531.484 693.891c-14.167.061-14.048 4.155-24.043 1.864-23.952-5.491-24.317 1.949-41.918 1.344-7.33-.252-7.365-4.488-13.924-1.395-7.074 3.337-11.423-6.986-4.934-11.979 7.586-5.839 11.736 4.225 14.784 4.977 12.843 3.167 22.438-16.21 44.235-7.633 7.924 3.117 8.2 2.035 16.004-1.106 17.548-7.062 38.093 17.138 45.438 6.29 6.605-9.755 14.925-1.767 14.496 4.255-.687 9.629-10.045 3.15-12.143 3.935-16.197 6.062-16.615.996-37.995-.552" style="fill:#020202" transform="translate(-94 -88)scale(1.00293)"/><path d="M512.506 331.059c33.005 3.546 25.056 45.386-.009 44.533-27.613-.939-30.187-41.91.009-44.533M682.089 595.469c-4.689 37.986-13.996 66.305-16.545 67.158-7.676 2.569-2.169-4.265 4.697-32.19 1.223-4.975 7.365-28.037 2.267-23.925-.94.759-20.301 18.53-20.784 19.156-.55.713-2.899 14.451-11.72 32.599-.199.41-2.516 5.176-4.215 3.826-14.164-11.253-12.274-13.464-10.224-19.572 4.035-12.021 3.162-12.966 13.257-20.6 2.692-2.035 21.433-16.206 33.379-25.79 8.88-7.124 9.707-6.378 10.16-5.569.192.343.104.375-.272 4.907M343.137 593.53c-.256-2.729-.377-2.731-.276-2.945.662-1.396 1.666-1.055 16.277 10.4 34.243 26.843 34.264 26.802 35.204 27.681 2.549 2.384 6.997 20.154 6.908 20.818-.306 2.29-11.774 16.291-14.403 11.796-9.802-16.764-11.242-34.126-14.355-36.77-13.407-11.387-12.852-11.899-20.121-17.819-3.301-2.689-2.902 2.826 1.369 19.748 8.29 32.852 13.07 37.622 6.689 36.399-4.769-.914-14.327-39.935-17.292-69.308" style="fill:#fbfbfb" transform="translate(-94 -88)scale(1.00293)"/><path d="M568.601 337.109c28.91 8.893 12.558 50.196-12.982 38.137-19.082-9.009-13.826-42.941 12.982-38.137" style="fill:#fcfcfc" transform="translate(-94 -88)scale(1.00293)"/><path d="M326.099 572.525c.43 5.986 3.328 46.331.716 75.014-.39 4.285-4.342 5.241-4.441 2.991-.197-4.445 1.061-17.177.665-53.017-.106-9.617-.367-12.43-2.571-12.595-.777-.058-14.055.591-14.868.932-1.94.813-1.338 1.539-1.715 42.657-.019 2.16-.232 25.39.005 27.001.891 6.042-11.2-2.873-9.915-8.929 10.618-50.056 3.382-59.607 4.353-77.089.173-3.112 2.588-2.214 18.137-4.252 2.269-.297 7.368-1.259 8.431-.143 1.28 1.344.672 1.602 1.203 7.43M697.874 593.514c.303-8.047.242-7.956.803-16.002.573-8.221-1.151-13.543 5.782-12.664 20.454 2.595 22.599 1.679 22.334 5.664-4.078 61.385 4.002 63.127 4.522 76.987.161 4.274-6.808 9.7-8.933 10.598-2.113.894-1.037-1.318-1.176-14.592-.214-20.448.352-54.481-.342-56.196-.495-1.224-.801-1.98-16.382-2.03-3.095-.01-2.49 7.332-2.477 24.222.029 37.887 2.559 46.739-2.275 40.797-1.87-2.299-2.824-33.267-1.856-56.784" style="fill:#fafafa" transform="translate(-94 -88)scale(1.00293)"/><path d="M458.565 336.898c28.081-1.049 26.567 30.512 12.025 37.765-27.543 13.737-43.87-29.665-12.025-37.765" style="fill:#fcfcfc" transform="translate(-94 -88)scale(1.00293)"/><path d="M337.078 475.462c1.411-11.47 1.038-11.45 2.336-22.972.802-7.117 13.853-20.683 22.348-27.564 2.337-1.893 2.141 1.321 2.128 1.53-.788 12.928-.646 12.844-1.822 46.017-.153 4.319-12.696 10.376-22.573 20.021-5.059 4.94-3.36-2.018-2.417-17.032" style="fill:#fbfbfb" transform="translate(-94 -88)scale(1.00293)"/><path d="M687.082 466.541c1.37 15.1 3.513 30.791.22 27.397-8.637-8.9-23.723-16.755-23.942-21.427-.179-3.825-2.211-47.212-1.614-47.839 1.603-1.68 23.003 17.927 23.987 28.808.592 6.546.608 6.47 1.349 13.061" style="fill:#fcfcfc" transform="translate(-94 -88)scale(1.00293)"/><path d="M261.185 556.522c3.595 54.915-7.423 55.813-10.424 52.733-5.114-5.25 3.266-14.73 1.754-18.76-12.724-33.9-2.942-51.922-6.344-58.838-7.509-15.27-1.894-25.774 4.133-17.027 7.028 10.2 10.463 38.455 10.881 41.892M762.929 576.496c1.226-53.86 14.608-64.819 14.65-64.843 1.395-.781 9.208-.64 1.2 19.948-.915 2.354 2.697 24.742-2.565 47.837-2.057 9.025-6.085 9.22-1.937 17.171 2.69 5.156 2.247 14.219-2.75 13.689-7.735-.821-8.525-31.013-8.598-33.802" style="fill:#030303" transform="translate(-94 -88)scale(1.00293)"/><path d="M408.394 346.24c24.506-7.431 33.059 24.593 13.918 34.923-20.654 11.148-39.294-21.63-13.918-34.923M610.475 344.926c29.006 3.724 20.003 44.317-4.027 37.745-18.451-5.045-20.451-36.22 4.027-37.745M358.856 382.414c-3.589-24.821 22.09-29.989 28.946-14.038 9.483 22.062-20.319 40.531-28.946 14.038" style="fill:#fcfcfc" transform="translate(-94 -88)scale(1.00293)"/><path d="M666.06 382.406c-.444 1.206-1.826 10.997-13.61 12.658-23.825 3.357-20.292-43.503 2.873-35.067 2.303.838 6.657 3.386 8.801 7.699 3.918 7.883 2.106 13.02 1.936 14.71M512.51 324.928c-31.674-1.759-16.662-37.508 7.811-27.955 12.902 5.036 17.236 25.673-7.811 27.955" style="fill:#fcfcfc" transform="translate(-94 -88)scale(1.00293)"/><path d="M513.494 134.609c2.121.359 10.822.228 19.929 8.968 13.641 13.09 5.082 35.736 1.875 32.03-.243-.28 9.819-22.139-9.926-31.829-6.76-3.319-7.005-.814-6.886-.276 1.55 6.969 3.115 7.975-2.184 12.776-8.087 7.329-19.222.896-19.237-6.713-.009-4.526-2.144-1.959-2.282-1.773-14.581 19.58-1.278 27.056-5.275 28.53-1.877.693-15.412-23.016 8.23-37.413 6.528-3.975 14.45-4.254 15.756-4.3" style="fill:#f6f6f6" transform="translate(-94 -88)scale(1.00293)"/><path d="M561.508 326.93c-32.123-1.496-24.388-35.475-.12-28.989 16.81 4.492 20.923 27.01.12 28.989M464.522 326.969c-29.389-.694-10.053-40.495 13.753-27.087 9.236 5.202 12.763 24.397-13.753 27.087M428.545 305.043c29.08 5.392.514 41.762-17.737 27.102-9.333-7.496-.739-28.213 17.737-27.102M600.539 305.027c23.788 3.889 21.714 33.092 1.028 30.044-18.487-2.723-26.923-30.706-1.028-30.044M677.071 322.617c-.476-1.555-.943-5.706-3.548-7.149-2.144-1.189-2.517-1.27-4.194-.246-10.314 6.295-19.613-4.898-20.342-6.046-8.652-13.625 11.108-24.696 21.016-1.465 3.335 7.819 7.822 6.126 16.524 6.48 13.143.535 7.575 16.099 4.659 18.996-7.883 7.833-13.662-9.234-14.115-10.57" style="fill:#fcfcfc" transform="translate(-94 -88)scale(1.00293)"/><path d="M377.94 779.555c.828-3.291 1.163-5.494 3.573-3.07 19.063 19.177 46.982 25.807 51.915 30.104 2.27 1.976.05 12.528-.141 12.771-2.156 2.739-28.186-14.184-33.528-18.207-21.784-16.406-21.802-19.142-21.819-21.598M647.205 778.595c1.037 5.743-.751 5.649-12.386 15.293-2.943 2.44-20.005 16.583-40.292 25.679-3.782 1.696-3.304-5.811-3.379-8.051-.267-7.964 4.476-5.915 26.408-16.906 25.817-12.939 23.033-17.173 27.169-18.722 2.149-.805 1.601.591 2.48 2.707" style="fill:#fbfbfb" transform="translate(-94 -88)scale(1.00293)"/><path d="M387.577 342.64c-27.173 11.252-22.612-24.803-1.073-25.334 11.323-.28 16.717 15.586 1.073 25.334M656.125 335.465c-4.004 21.379-35.99 1.534-26.671-13.995 4.117-6.861 24.831-7.211 26.671 13.995M355.05 398.475c-4.023 29.054-35.641.542-20.226-15.675 5.966-6.276 19.504-4.556 20.226 15.675M694.079 390.567c.917 24.717-26.306 26.904-23.766 3.913 1.592-14.417 18.319-23.526 23.766-3.913" style="fill:#fcfcfc" transform="translate(-94 -88)scale(1.00293)"/><path d="M498.473 766.836c37.624 4.194 43.184-7.312 45.826-.259 2.857 7.625-1.741 6.458-9.738 8.191-24.606 5.334-54.366-.44-54.634-4.263-.015-.215 1.259-6.147 2.711-6.707 1.204-.464 1.131.733 15.835 3.038" style="fill:#040404" transform="translate(-94 -88)scale(1.00293)"/><path d="M558.449 292.165c-32.571 1.13-23.172-24.784-6.95-23.643 11.173.785 26.328 18.202 6.95 23.643M469.524 291.96c-27.807-1.369-2.774-34.863 15.573-19.03 2.503 2.16 9.419 13.903-7.542 17.804-.633.146-.595.091-8.031 1.226" style="fill:#fcfcfc" transform="translate(-94 -88)scale(1.00293)"/><path d="M508.523 288.135c-1.181-.157-11.777-1.569-12.141-8.628-.847-16.442 31.195-17.373 32.177-1.011.713 11.876-19.759 9.636-20.036 9.639" style="fill:#fbfbfb" transform="translate(-94 -88)scale(1.00293)"/><path d="M596.443 298.185c-28.643 2.181-24.713-30.793-2.962-23.632 9.635 3.172 18.368 19.309 2.962 23.632M428.555 298.128c-16.006-4.341-6.407-21.234 3.855-23.963 19.974-5.311 26.032 25.633-3.855 23.963" style="fill:#fcfcfc" transform="translate(-94 -88)scale(1.00293)"/><path d="M512.501 233.139c-1.013-.125-8.114-.997-11.826-4.808-.568-.584-4.522-4.643-2.916-9.755 4.884-15.542 33.756-9.227 29.499 4.853-2.884 9.542-14.749 9.709-14.757 9.71" style="fill:#fbfbfb" transform="translate(-94 -88)scale(1.00293)"/><path d="M335.906 505.518c.536-2.801-.158-3.608 13.254-14.442 4.102-3.314 12.572-11.482 12.583-5.593.034 18.839-.082 20.354-2.444 21.662-21.312 11.797-20.949 13.413-22.941 12.75-1.352-.45-.683-6.803-.452-14.377M689.763 514.494c-.167 3.814 1.137 6.786-2.239 4.953-2.144-1.163-10.46-6.523-18.149-10.718-4.107-2.242-5.57-1.567-5.678-6.235-.422-18.207-.797-18.849.705-19.16.106-.021.95-1.417 17.711 12.613 8.877 7.43 7.286 8.739 7.65 18.547" style="fill:#fcfcfc" transform="translate(-94 -88)scale(1.00293)"/><path d="M512.499 178.651c6.555-.059 13.143-1.393 13.196 2.841.159 12.607.963 15.944-2.181 16.137-1.871.114-21.319 1.307-23.411-.776-.029-.029-.948.026-.466-15.342.124-3.982 7.005-2.885 12.862-2.86M496.452 258.234c-1.351.187-12.494 1.732-16.806-2.871-11.357-12.122 21.568-25.087 28.149-8.975 3.32 8.129-10.071 11.524-11.343 11.846M529.567 258.21c-.992-.328-2.018-.548-3.011-.876-19.954-6.59-4.563-23.744 13.027-17.047 11.377 4.332 14.237 21.411-10.016 17.923M483.535 230.54c-19.154 13.833-29.33-6.363-14.78-14.595 14.309-8.096 26.728 3.537 14.78 14.595M549.573 234.22c-1.33-.522-12.619-4.956-12.519-12.728.209-16.18 33.161-5.692 25.642 9.118-2.521 4.966-12.043 3.748-13.123 3.61" style="fill:#fbfbfb" transform="translate(-94 -88)scale(1.00293)"/><path d="M395.466 305.127c-21.389-.734-1.593-30.192 11.941-21.462.811.523 6.655 4.292 2.855 11.719-3.299 6.448-13.434 9.353-14.796 9.743M341.586 341.573c11.457-12.094 22.739-3.971 16.979 9.958-6.187 14.96-31.358 11.284-16.979-9.958M631.476 305.118c-20.846-.63-23.865-25.503-6.969-22.68 12.23 2.043 21.081 19.755 6.969 22.68M687.141 351.506c-3.243 23.852-29.478-1.402-20.524-12.917 4.843-6.227 19.152-1.736 20.524 12.917" style="fill:#fcfcfc" transform="translate(-94 -88)scale(1.00293)"/><path d="M631.464 773.465c-2.625 2.496-14.9 14.168-38.94 23.113-3.115 1.159-3.957-5.075.214-7.7 9.792-6.163 9.973-5.813 18.986-13.068 3.364-2.708 9.684 2.335 24.648-12.458.209-.207 4.393-4.343 3.566-.891-.52 2.171-.934 1.947-8.474 11.004" style="fill:#fafafa" transform="translate(-94 -88)scale(1.00293)"/><path d="M329.909 417.491c-.902 23.004-24.275 6.119-18.526-11.033 3.616-10.786 16.88-4.265 18.526 11.033M695.954 413.607c1.942-4.793 1.346-5.078 4.831-8.848 14.565-15.76 19.693 18.018 4.548 23.265-11.305 3.917-9.523-13.049-9.379-14.417" style="fill:#fcfcfc" transform="translate(-94 -88)scale(1.00293)"/><path d="M393.357 772.62c-.657-.771-7.306-8.577-7.606-10.128-.636-3.283 2.925.334 3.101.513 12.858 13.056 21.881 12.455 23.602 12.75 2.045.351 1.722 1.053 21.705 14.202 1.605 1.057 1.457 5.614.92 6.239-.681.793-6.887-1.743-7.458-1.976-27.235-11.131-30.991-18.289-34.264-21.6" style="fill:#f9f9f9" transform="translate(-94 -88)scale(1.00293)"/><path d="M693.949 371.395c-.546-5.453-1.003-5.446-.315-7.865.141-.493 1.193-4.188 3.231-5.532 11.841-7.809 20.315 16.631 12.216 24.051-8.551 7.835-14.636-9.259-15.132-10.654" style="fill:#fcfcfc" transform="translate(-94 -88)scale(1.00293)"/><path d="M313.118 371.497c.161-1.997-.156-9.637 6.534-13.723 2.227-1.36 6.471-1.305 8.499.207 13.196 9.836-12.639 44.407-15.033 13.516" style="fill:#fdfdfd" transform="translate(-94 -88)scale(1.00293)"/><path d="M358.359 301.409c.728-.943 6.713-8.691 13.157-6.982 19.226 5.1-7.712 33-15.708 18.901-1.792-3.159 2.118-11.045 2.551-11.919" style="fill:#fcfcfc" transform="translate(-94 -88)scale(1.00293)"/><path d="M450.49 262.333c-.916-.043-9.516-.449-10.431-4.743-2.811-13.197 31.848-19.569 26.509-5.063-2.653 7.208-14.599 9.52-16.078 9.806M563.577 258.379c-14.617-11.67 3.816-20.345 17.57-9.449 8.972 7.107 2.17 20.356-17.57 9.449M680.063 541.492c-.321 6.427-3.044 42.689-6.573 45.998-.276.259-5.217 4.893-4.621 1.02 3.507-22.781 3.489-50.532 5.518-51.238 4.425-1.539 5.488-.511 5.676 4.22M347.032 563.549c-2.421-20.266-2.922-26.321.508-26.568 6.582-.472 4.319 2.93 4.708 9.535 2.3 39.001 6.038 46.52 2.521 43.56-5.548-4.67-5.867-10.143-7.737-26.527" style="fill:#fbfbfb" transform="translate(-94 -88)scale(1.00293)"/><path d="M351.309 313.845c-1.382 3.846-1.889 3.617-2.755 7.666-4.316 20.193-16.319 13.102-17.716 6.907-4.047-17.941 12.887-13.9 20.471-14.573" style="fill:#fcfcfc" transform="translate(-94 -88)scale(1.00293)"/><path d="M506.633 430.882c.758-.189 6.37-1.593 9.737.81 13.054 9.32-12.229 27.509-16.867 11.807-2.678-9.068 5.338-11.664 7.13-12.617M433.453 227.464c8.061-9.222 15.164-6.709 17.066-2.974 6.619 12.999-30.524 27.154-17.066 2.974M704.329 446.417c2.025-3.336 1.758-3.484 3.66-5.449 15.091-15.578 14.285 18.182.481 19.19-9.385.685-4.533-12.662-4.141-13.741M322.042 449.642c3.596 19.76-19.033 8.466-16.067-8.044.773-4.304 8.632-9.237 16.067 8.044M424.369 265.309c-18.724 10.678-17.659-.611-17.2-1.918 5.053-14.378 31.084-13.756 19.878-.305-.178.214-.198.164-2.678 2.223" style="fill:#fbfbfb" transform="translate(-94 -88)scale(1.00293)"/><path d="M613.509 269.97c-20.044-2.153-22.336-19.418-10.022-17.373 10.446 1.735 22.459 15.815 10.022 17.373" style="fill:#fafafa" transform="translate(-94 -88)scale(1.00293)"/><path d="M346.111 464.489c.295-6.861.27-13.573 1.192-16.068 1.022-2.767 5.982-7.903 7.268-8.776 3.051-2.073 1.719 11.687 1.714 11.846-.389 12.02 1.552 13.495-7.566 21.326-3.964 3.405-2.729-3.921-2.608-8.328" style="fill:#030303" transform="translate(-94 -88)scale(1.00293)"/><path d="M544.462 635.869c-5.519-.541-5.433.029-11.061.073-2.863.023 1.951-20.569 2.982-22.531 2.465-4.696 19.418 21.511 8.079 22.458" style="fill:#fafafa" transform="translate(-94 -88)scale(1.00293)"/><path d="M289.188 416.42c.208-.564 3.297-8.939 5.902-4.661 5.149 8.459 9.143 11.486 8.403 16.74-1.619 11.495-17.699 9.094-14.305-12.079M724.606 419.574c2.639-3.98 2.621-3.86 5.209-7.856 3.932-6.072 9.445 9.067 4.48 18.675-5.408 10.465-18.454 3.571-9.689-10.819" style="fill:#fbfbfb" transform="translate(-94 -88)scale(1.00293)"/><path d="M481.539 635.894c-.037-.004-5.548 1.889-4.099-7.404.866-5.56 9.472-20.314 11.811-13.892.739 2.026 4.037 20.033 3.28 20.93-.568.673-.728.436-10.992.366" style="fill:#fafafa" transform="translate(-94 -88)scale(1.00293)"/><path d="M577.587 234.416c-.396-.476-3.437-4.126-3.491-6.905-.271-13.894 26.238 2.58 19.945 10.657-4.8 6.161-15.425-2.877-16.454-3.752" style="fill:#fbfbfb" transform="translate(-94 -88)scale(1.00293)"/><path d="M669.105 448.52c-.037-1.067-1.079-10.576 1.254-8.743 10.361 8.14 8.499 17.449 8.838 30.726.008.298.127 4.964-1.815 3.252-8.898-7.844-7.352-9.164-8.277-25.235" style="fill:#020202" transform="translate(-94 -88)scale(1.00293)"/><path d="M296.136 381.418c.271-.911 2.843-9.549 7.39-9.314 2.106.109 5.287 14.462 4.683 19.354-1.259 10.209-14.91 7.54-12.073-10.04M716.856 387.552c3.814-13.37 2.442-13.721 3.101-14.728 3.635-5.559 16.46 16.022 4.312 24.326-7.508 5.132-7.419-8.628-7.413-9.598" style="fill:#fbfbfb" transform="translate(-94 -88)scale(1.00293)"/><path d="m495.538 355.551 1.747 1.113c11.593 19 33.247 7.301 28.826-11.188-.577-2.414 1.731-2.389 2.431-.001 8.561 29.22-30.28 33.891-33.573 11.083-.094-.65.261-.462.569-1.007" style="fill:#0f0f0f" transform="translate(-94 -88)scale(1.00293)"/><path d="M456.367 205.426c10.837-16.453 29.075-1.145 20.161 1.162-9.252 2.395-9.149 2.4-18.128 5.623-7.097 2.547-2.635-5.412-2.033-6.785" style="fill:#f8f8f8" transform="translate(-94 -88)scale(1.00293)"/><path d="M401.046 247.486c.998-8.465 8.335-13.74 12.405-14.298 19.37-2.656-11.198 29.367-12.405 14.298" style="fill:#fbfbfb" transform="translate(-94 -88)scale(1.00293)"/><path d="M569.374 205.575c6.161 12.937-5.357 5.768-10.819 3.777-.527-.192-10.92-2.08-9.868-6.807.433-1.945 9.761-11.654 20.687 3.03" style="fill:#f7f7f7" transform="translate(-94 -88)scale(1.00293)"/><path d="M623.879 246.476c-.889 16.2-30.309-14.621-12.353-13.258 9.485.721 12.03 11.845 12.353 13.258" style="fill:#fbfbfb" transform="translate(-94 -88)scale(1.00293)"/><path d="M645.126 275.571c.098 16.477-26.611-11.685-11.649-10.76 7.998.493 11.223 9.565 11.649 10.76" style="fill:#fafafa" transform="translate(-94 -88)scale(1.00293)"/><path d="M451.491 730.079c9.879 1.361 7.049 10.164 4.982 12.397-8.176 8.834-20.078-9.861-4.982-12.397" style="fill:#030303" transform="translate(-94 -88)scale(1.00293)"/><path d="M379.852 275.583c.484-1.244 4.145-10.636 12.643-10.881 12.705-.366-14.21 27.386-12.643 10.881" style="fill:#fbfbfb" transform="translate(-94 -88)scale(1.00293)"/><path d="M573.504 730.12c15.903 2.552 1.833 21.916-5.685 11.171-.419-.598-4.021-9.64 5.685-11.171" style="fill:#040404" transform="translate(-94 -88)scale(1.00293)"/><path d="M317.317 338.32c.516-.473 6.966-6.395 8.732-.659 3.12 10.135-7.298 12.73-8.506 13.031-.961.239-10.238.196-.226-12.372M707.564 351.072c-1.076-.339-9.553-3.012-9.337-10.578.462-16.185 24.038 10.847 9.337 10.578" style="fill:#fcfcfc" transform="translate(-94 -88)scale(1.00293)"/><path d="M448.397 363.644c8.924 11.635 25.642 8.421 26.1-11.145.041-1.715 1.829-1.35 2.134-.088 4.589 18.968-21.125 30.937-29.97 12.092.423-.491.427-.354 1.736-.859M579.322 355.686c3.319 20.212-24.345 24.434-30.46 6.772-2.825-8.157 3.537 1.684 3.72 1.967 3.558 5.505 19.964 12.883 25.159-7.8z" style="fill:#121212" transform="translate(-94 -88)scale(1.00293)"/><path d="M531.502 200.35c13.889 1.51 10.809 6.58 9.903 6.916-4.241 1.571-30.654-.923-18.766-5.432 4.265-1.617 4.271-1.228 8.863-1.484" style="fill:#f7f7f7" transform="translate(-94 -88)scale(1.00293)"/><path d="M486.518 202.529c11.02-5.519 23.757 1.315 19.816 2.629-3.855 1.286-31.878 6.812-19.816-2.629" style="fill:#f5f5f5" transform="translate(-94 -88)scale(1.00293)"/><path d="M427.267 357.807c6.988 23.157-19.967 27.569-25.49 14.648-3.844-8.993 5.333 8.527 16.614 2.832 6.257-3.159 8.732-11.005 7.565-15.722-.72-2.91 1.18-1.759 1.311-1.758" style="fill:#1c1c1c" transform="translate(-94 -88)scale(1.00293)"/><path d="M600.398 218.603c11.778 13.621-17.092-1.857-17.033-4.113.02-.76 2.184-2.78 8.183-1.163 4.874 1.314 8.545 5.015 8.85 5.276" style="fill:#f5f5f5" transform="translate(-94 -88)scale(1.00293)"/><path d="M623.724 365.799c.09.051 1.705.094 1.432 1.74-2.225 13.423-19.52 17.39-26.811 4.004-2.586-4.747 1.613-1.838 1.718-1.677 5.606 8.576 17.867 11.073 23.661-4.067" style="fill:#131313" transform="translate(-94 -88)scale(1.00293)"/><path d="M425.57 218.578c.72-.536 6.543-4.87 9.895-5.284.569-.071 7.176-.889 7.065 1.208-.071 1.346-.712.964-7.936 4.199-1.223.547-21.318 13.404-9.024-.123" style="fill:#f5f5f5" transform="translate(-94 -88)scale(1.00293)"/><path d="M697.479 740.471c-1.232.747-10.467 6.346-17.884-2.037-5.173-5.846 6.963 3.526 18.774-2.313.267-.131 5.22-2.58 3.71.193-.504.926-4.211 3.85-4.6 4.157" style="fill:#0b0b0b" transform="translate(-94 -88)scale(1.00293)"/><path d="M342.565 740.586c-8.225 4.852-12.381 2.23-18.593-3.468-5.569-5.109 3.294-.82 3.555-.694 9.632 4.661 25.385-4.617 15.654 3.712-.193.165-.423.285-.616.45" style="fill:#0c0c0c" transform="translate(-94 -88)scale(1.00293)"/><path d="M455.442 803.762c-4.578-1.378-6.945-.905-5.388-5.468.544-1.595 1.794-2.572 19.94 6.823 10.08 5.22-13.965-1.22-14.552-1.355" style="fill:#ededed" transform="translate(-94 -88)scale(1.00293)"/><path d="M565.529 800.573c6.556-2.528 6.512-2.519 7.081-2.73 2.924-1.085 2.936 2.296 2.412 3.408-.888 1.885-21.255 6.131-21.453 6.027-2.817-1.477 4.873-3.751 11.96-6.705" style="fill:#e3e3e3" transform="translate(-94 -88)scale(1.00293)"/><path d="M366.687 387.905c10.34 2.413 13.489 1.871 17.95-9.286 1.819-4.549 3.781 7.701-5.966 12.273-3.64 1.707-11.646 1.485-11.984-2.987" style="fill:#1a1a1a" transform="translate(-94 -88)scale(1.00293)"/><path d="M647.456 388.623c3.642.5 3.811 1.438 9.083-.991 7.87-3.628-3.89 9.363-13.691 1.48-4.277-3.439-4.311-10.08-1.777-6.257 1.939 2.927 1.562 3.449 6.385 5.768" style="fill:#1c1c1c" transform="translate(-94 -88)scale(1.00293)"/><path d="M791.448 227.552c13.813 13.623 14.533 13.303 14.987 16.006-1.777-1.51-10.974-10.21-14.987-16.006" style="fill:#494949;fill-opacity:.47" transform="translate(-94 -88)scale(1.00293)"/><path d="M169.504 313.502c-.171.394-2.013 4.634-2.231 4.88-.762.856-.252 1.089-1.029 1.978-1.197 1.369-5.286 9.327-5.712 10.157.929-2.563.454-2.698 1.993-5.004.181-.271-.357-.433 1.389-3.824.099-.191.528.022.622-.171.11-.226.875-1.798 1.101-2.946.223-1.129.753-.804.978-2.013.259-1.396 2.716-2.859 2.889-3.057" style="fill:#535353;fill-opacity:.43" transform="translate(-94 -88)scale(1.00293)"/><path d="m843.578 293.453.869.085c.239.2.691-.121.931.079.845.704.997 1.758 1.022 1.932.051.354.206 1.43 2.153 3.92 1.658 2.121.824 2.453 1.896 4.07.163.246.659-.072.875.129.751.697 1.115 3.525 1.156 3.843-2.361-2.834-6.161-9.949-8.902-14.058" style="fill:#555;fill-opacity:.43" transform="translate(-94 -88)scale(1.00293)"/><path d="m851.336 685.411.107 1.05c-.58 3.45-2.47 2.589-3.049 5.986-.03.172-.202 1.184-1.034 1.922-.221.196-.719-.131-.878.117-.635.991-.27 1.099-.986 2.012-.323.413.148.517-.176.833-.085.082-.081.074-1.088.999l-.755.156c.531-1.099 2.578-5.333 7.859-13.075" style="fill:#555;fill-opacity:.45" transform="translate(-94 -88)scale(1.00293)"/><path d="M245.516 775.484c4.32 2.413 4.17 2.6 9.011 7.985-3.849-.781-7.966-6.866-9.011-7.985" style="fill:#585858;fill-opacity:.47" transform="translate(-94 -88)scale(1.00293)"/><path d="m297.539 175.553-.067.904c-.898.692-.941.502-1.87 1.206-1.762 1.337-5.372 3.505-5.947 4.06l-1.112-.164c.227-.251-.233-.764-.006-1.016.215-.238.7.141.963-.044.197-.137-.099-.605.116-.711.573-.281 1.343.046 1.894-.275.14-.082-.474-.485 1.142-1.661.851-.619 1.141.406 1.872-.32.218-.216-.126-.689.079-.918.632-.706 2.689-1.023 2.936-1.061" style="fill:#626262;fill-opacity:.36" transform="translate(-94 -88)scale(1.00293)"/><path d="M817.442 256.551c2.093 1.957 2.45 1.524 4.104 3.923.654.947.335 1.032.918 2.057.146.255.656-.052.869.151.203.193-.059.647.156.827.236.197.684-.125.92.072l-.069 2.051c-3.686-3.73-6.429-8.299-6.898-9.081" style="fill:#555;fill-opacity:.44" transform="translate(-94 -88)scale(1.00293)"/><path d="m468.63 112.798 2.86.349 1.018.067 2.988.365 1 .107c-.855.248-.754.862-8.991 1.14.755-1.612.647-1.654 1.125-2.028" style="fill:#7b7b7b;fill-opacity:.36" transform="translate(-94 -88)scale(1.00293)"/><path d="M217.53 746.473c4.024 3.648 4.107 3.484 7.005 7.994-1.332-1.237-6.251-4.352-7.005-7.994" style="fill:#4a4a4a;fill-opacity:.47" transform="translate(-94 -88)scale(1.00293)"/><path d="M178.562 297.548c-.176.804-.469 2.14-4.861 9.059l-.148-1.071c.082-.418.755-3.819 2.083-4.901.245-.199.766.181.942-.08.66-.974.287-1.103 1.013-2.002.46-.569.454-.469.971-1.005" style="fill:#565656;fill-opacity:.44" transform="translate(-94 -88)scale(1.00293)"/><path d="m836.674 708.619.803-.137c-.524 1.087-.317 1.097-.974 2.019-.771 1.082-.946.901-1.003.999-.32.547-.029 1.305-.305 1.875-.099.206-.54-.047-.67.14-.179.258.149.723-.079.939-.232.219-.717-.173-.957.038-.224.197.11.678-.1.89-.212.213-.683-.1-.895.113l-.913.066c2.373-3.19 2.552-2.935 2.73-3.222 2.083-3.35 2.045-3.348 2.363-3.72" style="fill:#5b5b5b;fill-opacity:.42" transform="translate(-94 -88)scale(1.00293)"/><path d="m322.511 832.479 2.133-.223c.307.086 2.904.81 3.69 1.527 2.58 2.356 2.953 1.616 3.951 2.132.195.1-.002.529.193.629-2.422-.455-2.364-.479-9.967-4.065" style="fill:#575757;fill-opacity:.41" transform="translate(-94 -88)scale(1.00293)"/><path d="m749.346 191.724 1.145-.212c.203.208.662-.089.864.12.21.216-.139.743.121.896.554.324 1.323.02 1.905.29.351.163.113.347 3.083 3.722l.173.797c-3.607-2.929-3.621-2.749-7.291-5.613" style="fill:#595959;fill-opacity:.45" transform="translate(-94 -88)scale(1.00293)"/><path d="M743.482 186.521c2.728 1.237 2.87.987 3.864 2.118.196.224-.124.735.134.883.557.319 1.322.012 1.903.284.206.097-.055.539.131.669.257.18.722-.147.937.081.219.232-.179.724.04.956l-1.145.212c-2.609-2.554-2.983-1.921-5.733-4.369z" style="fill:#616161;fill-opacity:.36" transform="translate(-94 -88)scale(1.00293)"/><path d="M210.52 738.482c.678.565 5.187 3.686 5.982 7.016-.931-.87-5.262-3.326-5.982-7.016" style="fill:#585858;fill-opacity:.46" transform="translate(-94 -88)scale(1.00293)"/><path d="M761.451 200.556c3.81.689 5.588 4.494 7.001 5.999-3.998-2.427-3.915-2.466-7.001-5.999" style="fill:#515151;fill-opacity:.45" transform="translate(-94 -88)scale(1.00293)"/><path d="M820.488 731.49c-.77 3.86-4.189 5.261-5.009 5.991l-.795.185c2.714-3.291 2.46-3.438 5.804-6.176" style="fill:#595959;fill-opacity:.46" transform="translate(-94 -88)scale(1.00293)"/><path d="m173.553 305.536.148 1.071c-2.039 2.176-1.235 2.59-1.407 2.769-.799.833-.326 1.072-1.097 1.937-1.231 1.38-1.409 1.157-1.511 1.278.895-2.118.587-2.161 1.774-4.111.61-1.005.244-1.133.944-2.039.176-.228-.026-.662.2-.84.249-.197.7.131.949-.065" style="fill:#626262;fill-opacity:.37" transform="translate(-94 -88)scale(1.00293)"/><path d="m841.326 701.398.1 1.053c-.035.246-.318 2.244-1.067 2.916-.225.201-.736-.15-.9.103-.625.963-.265 1.078-.983 2.016-.459.598-.476.474-.999.996l-.803.137c2.478-3.584 2.148-3.714 4.652-7.221" style="fill:#555;fill-opacity:.47" transform="translate(-94 -88)scale(1.00293)"/><path d="M720.488 171.52c.321.038 3.198.376 3.873 1.127.206.229-.168.751.091.919.992.645 1.121.257 2.031.964.584.452.461.468.99 1.005l.132.809c-2.283-1.6-4.393-2.437-7.117-4.824" style="fill:#535353;fill-opacity:.45" transform="translate(-94 -88)scale(1.00293)"/><path d="M418.619 121.836c2.51.839 2.422.854 3.793 1.211l-3.872.776c-2.133-.203-2.052-.19-4.185-.606 2.081-.929 2.187-.461 4.264-1.381" style="fill:#636363;fill-opacity:.28" transform="translate(-94 -88)scale(1.00293)"/><path d="M419.581 870.299c3.718-.137 3.639-.058 3.954-.087l3.888.649c-1.955.787-1.863.759-3.812 1.326-2.042-.947-1.969-.912-4.03-1.888" style="fill:#686868;fill-opacity:.33" transform="translate(-94 -88)scale(1.00293)"/><path d="M255.507 784.492c3.2.782 4.804 3.514 6.02 4.978-3.601-.661-5.488-4.396-6.02-4.978" style="fill:#575757;fill-opacity:.45" transform="translate(-94 -88)scale(1.00293)"/><path d="M768.452 206.555c3.807.707 4.872 3.753 6.005 4.988-3.446-1.906-3.328-2.002-6.005-4.988" style="fill:#535353;fill-opacity:.45" transform="translate(-94 -88)scale(1.00293)"/><path d="M705.439 162.614h2.004c1.304 1.025 1.696.131 2.923 1.168.944.797.977.73 1.04.815.202.273-.183.746.019 1.018l-1.028.086c-2.238-1.945-2.739-1.092-4.958-3.087" style="fill:#727272;fill-opacity:.36" transform="translate(-94 -88)scale(1.00293)"/><path d="M213.537 249.537c-.805 3.096-3.405 4.582-4.969 6.021.68-3.708 4.311-5.416 4.969-6.021" style="fill:#525252;fill-opacity:.45" transform="translate(-94 -88)scale(1.00293)"/><path d="m133.776 587.45 1.002 4.002c-.239 2.065-.308 1.981-.974 3.952-.038-2.17.19-2.199-.956-4.024.713-2.004.673-1.909.928-3.93" style="fill:#5c5c5c;fill-opacity:.31" transform="translate(-94 -88)scale(1.00293)"/><path d="M463.512 877.34c3.626.187 3.559.085 6.988 1.068l-1.999.132c-1.989.118-1.917.175-3.855.6-.128-.112-.042-.147-1.134-1.8" style="fill:#6a6a6a;fill-opacity:.44" transform="translate(-94 -88)scale(1.00293)"/><path d="M769.469 784.466c-.775.836-2.401 4.244-5.991 5.008 2.701-2.895 2.595-2.951 5.991-5.008" style="fill:#494949;fill-opacity:.47" transform="translate(-94 -88)scale(1.00293)"/><path d="M893.199 580.466c.289 2.047.275 1.998.943 3.908-.889 1.929-.97 1.88-1.007 4.001-.671-1.924-.648-1.828-.909-3.916.38-2.066.323-1.995.973-3.993" style="fill:#5b5b5b;fill-opacity:.32" transform="translate(-94 -88)scale(1.00293)"/><path d="M120.826 488.494c.675 8.555.567 8.507-.001 17.011.027-8.571.025-8.472.001-17.011" style="fill:#3d3d3d;fill-opacity:.22" transform="translate(-94 -88)scale(1.00293)"/><path d="m738.387 183.685 1.079-.139c3.541.507 2.813 1.642 4.016 2.975l.131.834c-4.842-3.52-4.813-3.369-5.226-3.67" style="fill:#5d5d5d;fill-opacity:.45" transform="translate(-94 -88)scale(1.00293)"/><path d="M892.144 399.62c.05 2.137-.185 2.169 1.001 4.005-.696 1.937-.671 1.844-.895 3.924l-1.016-4.002c.265-2.037.229-1.936.91-3.927" style="fill:#5a5a5a;fill-opacity:.32" transform="translate(-94 -88)scale(1.00293)"/><path d="M893.145 403.625c.025 2.149-.234 2.188.979 4.007-.657 1.917-.64 1.865-.919 3.91l-.955-3.993c.224-2.08.199-1.987.895-3.924" style="fill:#575757;fill-opacity:.33" transform="translate(-94 -88)scale(1.00293)"/><path d="M892.226 584.459c.261 2.088.238 1.992.909 3.916-1.159 1.832-.937 1.861-1.005 4.003-.62-1.966-.596-1.91-.902-3.928z" style="fill:#5c5c5c;fill-opacity:.33" transform="translate(-94 -88)scale(1.00293)"/><path d="M626.456 863.261c2.031.272 1.968.291 3.931.902-2.147.073-2.18-.181-4.012.982-1.918-.584-1.842-.638-3.908-.844 1.999-.68 1.928-.623 3.989-1.04" style="fill:#5a5a5a;fill-opacity:.33" transform="translate(-94 -88)scale(1.00293)"/><path d="m132.71 583.455 1.066 3.995c-.255 2.021-.215 1.926-.928 3.93-.04-2.117-.116-2.067-.996-3.996.602-1.969.663-1.889.858-3.929" style="fill:#575757;fill-opacity:.32" transform="translate(-94 -88)scale(1.00293)"/><path d="M410.609 123.825c.772-.02.741-.065 3.746-.608 2.133.416 2.052.403 4.185.606l-3.999.997c-2.041-.349-1.995-.311-3.932-.995" style="fill:#555;fill-opacity:.29" transform="translate(-94 -88)scale(1.00293)"/><path d="M201.561 264.553c-.771 2.874-1.23 2.592-3.199 4.837l-.83.138c.466-1.027.25-1.044.929-2.05 1.226-1.813 1.472-1.501 3.1-2.925" style="fill:#585858;fill-opacity:.41" transform="translate(-94 -88)scale(1.00293)"/><path d="M267.497 794.503c3.507.75 3.772 2.46 5.024 3.972-3.27-.6-2.734-1.456-5.024-3.972" style="fill:#5a5a5a;fill-opacity:.44" transform="translate(-94 -88)scale(1.00293)"/><path d="M394.564 863.328c2.04.129 1.977.121 3.995-.07l3.97 1.132c-2.03.134-1.953.198-3.906.733-2.064-.908-3.734-1.651-4.059-1.795" style="fill:#575757;fill-opacity:.35" transform="translate(-94 -88)scale(1.00293)"/><path d="m830.321 717.382.139 1.088c-.197.206.071.642-.127.848-.301.314-.826-.196-1.084 1.028-.465 2.21-2.641 3.023-2.766 3.139.536-2.345.927-2.093 3.838-6.103" style="fill:#505050;fill-opacity:.49" transform="translate(-94 -88)scale(1.00293)"/><path d="M208.568 255.558c-1.356 2.686-1.253 2.651-3.198 4.835l-.845.129c.476-1.076.258-1.105.911-2.057 1.244-1.813 1.523-1.468 3.132-2.907" style="fill:#555;fill-opacity:.41" transform="translate(-94 -88)scale(1.00293)"/><path d="M756.464 196.54c1.07.479 1.1.256 2.058.92 1.761 1.222 1.464 1.446 2.929 3.096-.447-.12-1.888-.507-4.814-3.219z" style="fill:#555;fill-opacity:.42" transform="translate(-94 -88)scale(1.00293)"/><path d="M608.457 868.278c2.042.246 1.989.229 3.91.84-2.156.056-2.194-.192-3.996 1.004-1.933-.562-1.853-.625-3.903-.839 2.022-.575 1.953-.595 3.989-1.005" style="fill:#555;fill-opacity:.35" transform="translate(-94 -88)scale(1.00293)"/><path d="M604.468 869.283c2.05.214 1.97.277 3.903.839-2.164.03-2.208-.22-3.994 1.027-1.963-.605-1.865-.681-3.909-.879 2.015-.567 1.951-.587 4-.987" style="fill:#545454;fill-opacity:.35" transform="translate(-94 -88)scale(1.00293)"/><path d="M886.367 381.55c.827 1.865.916 1.762 1.403 3.811l-.554 3.206c-.634-1.518-.646-1.4-1.029-3.016.036-.318-.103-.247.18-4.001" style="fill:#5a5a5a;fill-opacity:.31" transform="translate(-94 -88)scale(1.00293)"/><path d="M272.543 193.549c-.8.93-1.576 3.114-4.995 4.006 2.249-2.565 1.71-3.411 4.995-4.006" style="fill:#545454;fill-opacity:.44" transform="translate(-94 -88)scale(1.00293)"/><path d="M600.468 870.27c2.044.198 1.946.274 3.909.879-.598.004-.554.033-3.785.525l-4.116-.425z" style="fill:#4e4e4e;fill-opacity:.35" transform="translate(-94 -88)scale(1.00293)"/><path d="M267.548 197.555c-.784.926-1.598 3.095-5.004 3.997 2.26-2.535 1.702-3.43 5.004-3.997" style="fill:#545454;fill-opacity:.43" transform="translate(-94 -88)scale(1.00293)"/><path d="M512.483 814.554c-1.077-.912-1.859-.939-.953-2.018.864-1.029 5.243 1.243.953 2.018" style="fill:#6f6f6f" transform="translate(-94 -88)scale(1.00293)"/><path d="M622.467 864.301c2.066.206 1.99.26 3.908.844-.234.004-.187.041-2.917.256-4.666-.1-4.585.026-4.983.005 1.987-.629 1.913-.66 3.992-1.105" style="fill:#4b4b4b;fill-opacity:.36" transform="translate(-94 -88)scale(1.00293)"/><path d="M399.592 127.725c1.95.054 1.868-.02 3.8.306-1.546.307-1.484.356-4.014 1.115-1.537-.394-1.441-.517-3.007-.948 1.552-.673 1.539-.484 3.221-.473" style="fill:#4c4c4c;fill-opacity:.31" transform="translate(-94 -88)scale(1.00293)"/><path d="M888.29 388.581c.138.287.629.054 1.383 3.825-.707 2.777-.661 2.743-.734 2.978l-.712-2.825c.024-.317-.063-.212.063-3.978" style="fill:#5d5d5d;fill-opacity:.31" transform="translate(-94 -88)scale(1.00293)"/><path d="M262.544 201.552c-2.227 2.384-2.098 2.469-4.998 3.994 2.294-2.525 1.765-3.358 4.998-3.994" style="fill:#4c4c4c;fill-opacity:.45" transform="translate(-94 -88)scale(1.00293)"/><path d="m889.928 592.614.717 2.962c-.428 3.442-.443 3.412-.449 3.828-.826-1.899-.836-1.825-.948-3.959z" style="fill:#565656;fill-opacity:.31" transform="translate(-94 -88)scale(1.00293)"/><path d="M137.651 385.555c.184 3.727.083 3.686.111 4.006l-.663 2.827-.744-2.967c.71-3.755 1.155-3.545 1.296-3.866" style="fill:#5a5a5a;fill-opacity:.32" transform="translate(-94 -88)scale(1.00293)"/><path d="M404.54 866.414c1.951-.067 1.898.011 3.053-.206 1.949.232 1.836.266 3.807.734l-2.967.691z" style="fill:#5e5e5e;fill-opacity:.34" transform="translate(-94 -88)scale(1.00293)"/><path d="m197.532 269.528.83-.138c-2.784 3.715-2.737 3.705-2.996 4.01l-.822.136c.477-1.047.25-1.074.933-2.049.84-1.196.967-.986 2.055-1.959" style="fill:#535353;fill-opacity:.44" transform="translate(-94 -88)scale(1.00293)"/><path d="m138.053 602.629.725 2.814c-.336 2.869-.343 2.85-.363 3.099-.041.515.218.425.179.919-.806-1.944-.87-1.859-1.291-3.859z" style="fill:#5b5b5b;fill-opacity:.31" transform="translate(-94 -88)scale(1.00293)"/><path d="m719.622 820.689-.119.815c-.515.527-.395.549-.992 1.015-2.691 2.098-2.979 1.388-4.05 1.923l.16-.718c.145-.106 1.269-.933 1.942-1.117.279-.076.347-.094 3.059-1.918" style="fill:#494949;fill-opacity:.46" transform="translate(-94 -88)scale(1.00293)"/><path d="m884.957 609.632.655 2.927c-.625 3.519-1.059 3.358-1.288 3.864-.018-.499.17-.425.152-.935-.009-.244-.016-.226-.208-3.046z" style="fill:#585858;fill-opacity:.33" transform="translate(-94 -88)scale(1.00293)"/><path d="M887.77 385.361c.705 1.554.516 1.544.52 3.22-.126 3.766-.039 3.661-.063 3.978-.604-2.022-.637-1.903-1.011-3.992z" style="fill:#4d4d4d;fill-opacity:.31" transform="translate(-94 -88)scale(1.00293)"/><path d="M389.531 130.573c1.956-.016 1.868.027 3.84.471l-2.806.705c-2.848-.25-2.829-.256-3.076-.27-.509-.03-.432.17-.942.141z" style="fill:#565656;fill-opacity:.32" transform="translate(-94 -88)scale(1.00293)"/><path d="M134.864 392.62c.617 1.972.593 1.92.893 3.936l-.683 2.823c-.044-.137-.038-.132-.72-2.959.484-3.435.497-3.408.51-3.8" style="fill:#5a5a5a;fill-opacity:.31" transform="translate(-94 -88)scale(1.00293)"/><path d="M293.52 813.475c1.36.342 1.317.302 5.068 2.869l-1.052.104c-3.448-.52-2.728-1.673-4.016-2.973" style="fill:#565656;fill-opacity:.47" transform="translate(-94 -88)scale(1.00293)"/><path d="m204.525 260.522.845-.129c-1.777 2.316-1.683 2.289-3.809 4.16.634-3.587 2.747-3.84 2.964-4.031" style="fill:#525252;fill-opacity:.45" transform="translate(-94 -88)scale(1.00293)"/><path d="m136.015 595.619.688 2.831c-.097 2.105-.098 2.042-.88 3.947-.002-.237-.056-.15-.174-2.959-.105-1.927-.027-1.819.366-3.819" style="fill:#515151;fill-opacity:.33" transform="translate(-94 -88)scale(1.00293)"/><path d="m138.778 605.443.949 2.994c-.267 2.864-.275 2.845-.289 3.093-.029.51.198.424.169.924l-1.013-2.993c.039-.494-.22-.404-.179-.919.02-.249.027-.23.363-3.099" style="fill:#545454;fill-opacity:.32" transform="translate(-94 -88)scale(1.00293)"/><path d="m395.539 862.353 3.02.905c-2.018.191-1.955.199-3.995.07-1.525-.039-1.46-.124-2.967-.143 1.944-.841 1.881-.839 3.942-.832" style="fill:#4f4f4f;fill-opacity:.34" transform="translate(-94 -88)scale(1.00293)"/><path d="M196.52 720.483c1.846 1.821 1.82 1.737 3.151 3.863l-.122 2.113c-.852-2.148-2.648-4.414-3.029-5.976" style="fill:#444;fill-opacity:.38" transform="translate(-94 -88)scale(1.00293)"/><path d="M886.18 378.601c.004.237.062.134.187 2.949-.283 3.754-.144 3.683-.18 4.001-.69-1.967-.693-1.871-.975-3.982.357-1.565.325-1.483.968-2.968" style="fill:#505050;fill-opacity:.31" transform="translate(-94 -88)scale(1.00293)"/><path d="m139.727 608.437.983 3.005c-.154 2.812-.161 2.793-.167 3.036-.012.539.168.414.156.945l-1.092-2.969c.029-.5-.198-.414-.169-.924.014-.248.022-.229.289-3.093" style="fill:#505050;fill-opacity:.33" transform="translate(-94 -88)scale(1.00293)"/><path d="M386.547 131.62c.51.029.433-.171.942-.141.247.014.228.02 3.076.27-1.971.634-1.903.669-3.983 1.044l-3.044-.193z" style="fill:#515151;fill-opacity:.32" transform="translate(-94 -88)scale(1.00293)"/><path d="M625.43 127.681c.604.014.492.119 1.075.133.152.003.14 0 1.898 0-1.468.644-1.393.657-2.97.959-1.984-.256-1.868-.282-3.821-.729 1.91-.357 1.808-.436 3.818-.363" style="fill:#4d4d4d;fill-opacity:.32" transform="translate(-94 -88)scale(1.00293)"/><path d="M884.268 612.442c.192 2.82.199 2.802.208 3.046.018.51-.17.436-.152.935l-1.019 3.012c-.013-1.5-.068-1.441-.479-2.824.887-2.055.763-1.997 1.442-4.169" style="fill:#494949;fill-opacity:.34" transform="translate(-94 -88)scale(1.00293)"/><path d="M192.552 276.542c-.073.347-.377 1.789-2.167 3.873l-.849.113c.467-1.064.239-1.104.905-2.061.854-1.226.987-.956 2.111-1.925" style="fill:#5f5f5f;fill-opacity:.4" transform="translate(-94 -88)scale(1.00293)"/><path d="m144.56 364.521.233 3.063c-.396 2.073-.432 2-1.077 3.974-.144-2.039.019-1.972-.102-4.017z" style="fill:#515151;fill-opacity:.32" transform="translate(-94 -88)scale(1.00293)"/><path d="M140.71 611.442c.625 1.981.668 1.905 1.039 3.991-.227 1.611-.263 1.531-.94 2.978-.001-1.542-.09-1.479-.11-2.988.012-.531-.168-.406-.156-.945.006-.243.013-.224.167-3.036" style="fill:#494949;fill-opacity:.32" transform="translate(-94 -88)scale(1.00293)"/><path d="m137.834 382.606.946 2.959c-.372 2.095-.408 2.023-1.018 3.996-.028-.32.073-.279-.111-4.006.025-.599.133-.485.157-1.063.006-.151.002-.14.026-1.886" style="fill:#4d4d4d;fill-opacity:.31" transform="translate(-94 -88)scale(1.00293)"/><path d="m383.538 132.6 3.044.193c-1.475.68-1.402.709-2.993 1.014l-3.072-.261z" style="fill:#565656;fill-opacity:.31" transform="translate(-94 -88)scale(1.00293)"/><path d="m420.534 869.357 3.001.855c-.315.029-.236-.05-3.954.087-.607-.021-.491-.142-1.077-.163-.151-.005-.14.001-1.881.009 1.972-.572 1.866-.669 3.911-.788" style="fill:#494949;fill-opacity:.35" transform="translate(-94 -88)scale(1.00293)"/><path d="M762.499 790.499c-1.425 1.519-.989 1.774-1.12 1.891-.226.2-.703-.148-.903.078-.214.243.189.729-.025.971l-2.088-.079c1.824-1.864 1.57-2.277 4.136-2.861" style="fill:#5f5f5f;fill-opacity:.45" transform="translate(-94 -88)scale(1.00293)"/><path d="m882.226 619.411.223 3.059-1.12 1.972c-.094-1.429-.032-1.382-.428-2.786.792-1.889.775-1.882.855-2.04.121-.237.319.093.47-.205" style="fill:#616161;fill-opacity:.33" transform="translate(-94 -88)scale(1.00293)"/><path d="m386.556 859.307 2.014.963c-1.029.144-.951.092-3.041.144-.559-.045-.446-.138-1.026-.184-.15-.013-.14-.007-1.889-.09 1.973-.578 1.917-.51 3.942-.833" style="fill:#575757;fill-opacity:.32" transform="translate(-94 -88)scale(1.00293)"/><path d="m616.629 865.853 1.846-.447c.398.021.317-.105 4.983-.005-1.969.841-1.914.838-4.056.816-1.411.058-1.31.045-2.773-.364" style="fill:#4c4c4c;fill-opacity:.31" transform="translate(-94 -88)scale(1.00293)"/><path d="M757.465 794.462c-.953 1.05-.884.961-.953 1.05-.451.582-.523.406-1.014.985-.198.234.124.682-.074.915l-2.035-.043c1.823-1.834 1.822-1.716 4.076-2.907" style="fill:#545454;fill-opacity:.47" transform="translate(-94 -88)scale(1.00293)"/><path d="M826.483 723.485c-.733 3.382-2.68 3.713-2.997 4.003.7-3.157 1.492-2.632 2.997-4.003" style="fill:#4f4f4f;fill-opacity:.45" transform="translate(-94 -88)scale(1.00293)"/><path d="M261.527 789.47c2.268 1.193 2.272 1.084 4.057 2.936l-2-.004c-.197-.228.11-.671-.086-.899-.148-.172-.171-.073-1.971-2.033" style="fill:#545454;fill-opacity:.48" transform="translate(-94 -88)scale(1.00293)"/><path d="M616.629 865.853c1.463.409 1.362.422 2.773.364l-2.998 1.022c-1.463.079-1.41-.011-2.819-.427 2.775-.503 2.663-.777 3.044-.959" style="fill:#484848;fill-opacity:.35" transform="translate(-94 -88)scale(1.00293)"/><path d="M823.486 727.488c-.765 3.382-2.901 3.913-2.998 4.002.611-2.816 1.256-2.391 2.998-4.002" style="fill:#4e4e4e;fill-opacity:.45" transform="translate(-94 -88)scale(1.00293)"/><path d="M886.787 603.59c.47 1.397.508 1.326.482 2.821-.029 2.823-.099 2.75-.096 2.989-.604-1.434-.677-1.347-.907-2.957z" style="fill:#4a4a4a;fill-opacity:.31" transform="translate(-94 -88)scale(1.00293)"/><path d="M904.179 481.491c-.096 5.045-.233 4.975-.677 10.009.143-5.079.014-4.992.677-10.009" style="fill:#373737;fill-opacity:.25" transform="translate(-94 -88)scale(1.00293)"/><path d="M882.826 616.611c.411 1.383.466 1.324.479 2.824l-.856 3.035-.223-3.059z" style="fill:#4f4f4f;fill-opacity:.31" transform="translate(-94 -88)scale(1.00293)"/><path d="M880.901 621.656c.396 1.404.334 1.357.428 2.786l-.851 3.05-.255-3.083z" style="fill:#515151;fill-opacity:.3" transform="translate(-94 -88)scale(1.00293)"/><path d="m402.529 864.39 1.87.43c-1.387.433-1.316.47-2.806.42-.614-.009-.501-.113-1.093-.123-.15-.002-.139.001-1.877.006 1.953-.535 1.876-.599 3.906-.733" style="fill:#474747;fill-opacity:.33" transform="translate(-94 -88)scale(1.00293)"/><path d="M275.518 800.478c2.317 1.127 2.241 1.163 3.999 3.002-3.137-.699-3.901-2.902-3.999-3.002" style="fill:#444;fill-opacity:.46" transform="translate(-94 -88)scale(1.00293)"/><path d="M305.52 821.473c2.284.347 2.209.52 3.957 2.066l-2.813-.412c-.129-.095.188-.238-1.144-1.654" style="fill:#5f5f5f;fill-opacity:.46" transform="translate(-94 -88)scale(1.00293)"/><path d="M310.529 824.461c2.196.406 2.066.622 4.039 1.917l-1.033.072c-1.052-.518-1.118-.269-2.011-.991-.562-.454-.469-.47-.995-.998" style="fill:#555;fill-opacity:.48" transform="translate(-94 -88)scale(1.00293)"/><path d="M903.505 500.5c1.55 5.821.35 7.17.284 8.997z" style="fill:#3d3d3d;fill-opacity:.25" transform="translate(-94 -88)scale(1.00293)"/><path d="m189.536 280.528.849-.113c-1.293 1.745-1.285 1.645-2.829 3.129.67-3.347 1.751-2.786 1.98-3.016" style="fill:#4a4a4a;fill-opacity:.45" transform="translate(-94 -88)scale(1.00293)"/><path d="m866.473 331.514 1.041 1.979-.357 2.174c-.709-.922-.669-.868-1.017-2.021z" style="fill:#636363;fill-opacity:.27" transform="translate(-94 -88)scale(1.00293)"/><path d="m320.512 831.476 2.145-.285c1.13.358 1.054.332 1.987 1.065l-2.133.223z" style="fill:#656565;fill-opacity:.31" transform="translate(-94 -88)scale(1.00293)"/><path d="m194.544 273.536.822-.136c-1.076 1.432-.813 1.753-2.554 2.289.39-.589.322-.552.759-1.148.323-.438-.198-.525.129-.863.373-.385.505.208.844-.142" style="fill:#5a5a5a;fill-opacity:.48" transform="translate(-94 -88)scale(1.00293)"/><path d="m494.501 880.552-6.985.779c.968-.181.882-.553 6.985-.779" style="fill:#434343;fill-opacity:.22" transform="translate(-94 -88)scale(1.00293)"/><path d="M530.5 880.536" style="fill:#3e3e3e;fill-opacity:.24" transform="translate(-94 -88)scale(1.00293)"/><path d="M279.517 803.48c1.652.831 1.621.715 3.099 1.854l-1.094.137c-.539-.502-.556-.328-1.032-.96-.069-.09 0 0-.973-1.031" style="fill:#494949;fill-opacity:.53" transform="translate(-94 -88)scale(1.00293)"/><path d="M867.514 333.493c.285 1.624.488 1.498.562 3.203.021.498.211.401.233.897l-1.152-1.926z" style="fill:#444;fill-opacity:.28" transform="translate(-94 -88)scale(1.00293)"/><path d="M703.469 161.555c2.11.261 2.036.21 3.974 1.059h-2.004c-1.178-.327-1.084-.325-1.97-1.059" style="fill:#494949;fill-opacity:.4" transform="translate(-94 -88)scale(1.00293)"/><path d="m903.288 461.518-.837 5.98z" style="fill:#414141;fill-opacity:.22" transform="translate(-94 -88)scale(1.00293)"/><path d="M582.49 874.369c1.981-.027 1.922-.026 3.9-.063-1.876.951-1.937.933-3.9.063" style="fill:#585858;fill-opacity:.21" transform="translate(-94 -88)scale(1.00293)"/><path d="m684.75 839.994 2.7-.571-.106.925c-1.35-.012-1.304.036-2.594-.354" style="fill:#717171;fill-opacity:.44" transform="translate(-94 -88)scale(1.00293)"/><path d="m182.515 289.507.153 2.104-.218.859-.891.073z" style="fill:#454545;fill-opacity:.29" transform="translate(-94 -88)scale(1.00293)"/><path d="M570.496 876.415c1.81.122 1.747.202 4.889.786-2.544-.129-2.459-.243-4.889-.786" style="fill:#474747;fill-opacity:.22" transform="translate(-94 -88)scale(1.00293)"/><path d="M187.556 283.544c-.345 1.48-.217 1.645-1.72 2.163.412-.612.336-.58.77-1.145.448-.585.453-.485.95-1.018" style="fill:#5f5f5f;fill-opacity:.45" transform="translate(-94 -88)scale(1.00293)"/><path d="M824.409 263.581c.866 2.217.913 2.142 1.05 2.955l-.771-.183-.348-.721z" style="fill:#3a3a3a;fill-opacity:.28" transform="translate(-94 -88)scale(1.00293)"/><path d="M900.429 543.503c.526 2.435.658 2.341.754 4.872-.675-4.18-.685-4.107-.754-4.872" style="fill:#4d4d4d;fill-opacity:.2" transform="translate(-94 -88)scale(1.00293)"/><path d="m121.795 464.482.72 5.018z" style="fill:#3b3b3b;fill-opacity:.24" transform="translate(-94 -88)scale(1.00293)"/><path d="m902.507 524.5.774 4.983z" style="fill:#424242;fill-opacity:.22" transform="translate(-94 -88)scale(1.00293)"/><path d="M809.473 744.475c-.074.447-.098.413-1.025 2.984l-.103-2.11z" style="fill:#3e3e3e;fill-opacity:.26" transform="translate(-94 -88)scale(1.00293)"/><path d="m224.535 754.467 1.115.864-.156 2.174c-.202-.661-.454-.44-.657-1.108-.046-.15-.023-.143-.302-1.93" style="fill:#424242;fill-opacity:.25" transform="translate(-94 -88)scale(1.00293)"/><path d="m753.389 797.369 2.035.043c-2.22.883-2.144.925-2.94 1.07z" style="fill:#3a3a3a;fill-opacity:.29" transform="translate(-94 -88)scale(1.00293)"/><path d="M122.673 452.516c.528 2.6.625 2.485.853 4.983z" style="fill:#494949;fill-opacity:.2" transform="translate(-94 -88)scale(1.00293)"/><path d="m556.501 878.472 4.982.831c-2.625-.193-2.518-.227-4.982-.831" style="fill:#444;fill-opacity:.23" transform="translate(-94 -88)scale(1.00293)"/><path d="m460.516 113.705 4.98.89c-2.368-.246-2.252-.327-4.98-.89" style="fill:#434343;fill-opacity:.22" transform="translate(-94 -88)scale(1.00293)"/><path d="m758.363 793.36 2.088.079c-2.785.925-2.737.981-2.986 1.023z" style="fill:#3c3c3c;fill-opacity:.27" transform="translate(-94 -88)scale(1.00293)"/><path d="m690.482 154.538 2.963 1.075-.972-.061z" style="fill:#363636;fill-opacity:.49" transform="translate(-94 -88)scale(1.00293)"/><path d="m159.524 332.512-1.075 2.966.164-1.92z" style="fill:#3d3d3d;fill-opacity:.52" transform="translate(-94 -88)scale(1.00293)"/><path d="M793.453 761.454c-.31 1.799-.292 1.791-.335 1.943-.185.661-.491.463-.661 1.07l-.082-2.106z" style="fill:#3b3b3b;fill-opacity:.27" transform="translate(-94 -88)scale(1.00293)"/><path d="m263.584 792.402 2 .004.946 1.061c-.246-.048-.18-.118-2.946-1.065" style="fill:#343434;fill-opacity:.31" transform="translate(-94 -88)scale(1.00293)"/><path d="m901.488 535.501.83 3.986c-.119-.385-.531-.2-.83-3.986" style="fill:#444;fill-opacity:.21" transform="translate(-94 -88)scale(1.00293)"/><path d="M468.501 878.54c-1.948.467-1.881.575-3.855.6 1.938-.425 1.866-.482 3.855-.6" style="fill:#505050;fill-opacity:.22" transform="translate(-94 -88)scale(1.00293)"/><path d="m546.5 879.485 3.985.791z" style="fill:#3d3d3d;fill-opacity:.24" transform="translate(-94 -88)scale(1.00293)"/><path d="m454.504 876.413-3.99.874c.238-.071.106-.435 3.99-.874" style="fill:#3f3f3f;fill-opacity:.24" transform="translate(-94 -88)scale(1.00293)"/><path d="m479.5 879.518-3.983.763z" style="fill:#434343;fill-opacity:.23" transform="translate(-94 -88)scale(1.00293)"/><path d="m122.525 521.501-.284 3.992c-.179-2.075-.144-1.98.284-3.992" style="fill:#3f3f3f;fill-opacity:.26" transform="translate(-94 -88)scale(1.00293)"/><path d="m461.5 877.476-3.986.809z" style="fill:#404040;fill-opacity:.24" transform="translate(-94 -88)scale(1.00293)"/><path d="M539.521 111.799" style="fill:#3b3b3b;fill-opacity:.23" transform="translate(-94 -88)scale(1.00293)"/><path d="M123.538 533.501" style="fill:#404040;fill-opacity:.23" transform="translate(-94 -88)scale(1.00293)"/><path d="M123.704 445.515c.457 2.061.412 1.967.279 4.017z" style="fill:#424242;fill-opacity:.18" transform="translate(-94 -88)scale(1.00293)"/><path d="m902.266 452.517-.804 3.981z" style="fill:#424242;fill-opacity:.22" transform="translate(-94 -88)scale(1.00293)"/><path d="M125.597 548.498c-.378 2.812-.355 2.797-.408 3.037-.126.568-.36.393-.484.95z" style="fill:#494949;fill-opacity:.21" transform="translate(-94 -88)scale(1.00293)"/><path d="M124.574 541.503" style="fill:#414141;fill-opacity:.23" transform="translate(-94 -88)scale(1.00293)"/><path d="M272.521 798.475c1.191.3 1.119.292 1.953 1.063zM290.523 811.471c1.172.301 1.116.292 1.961 1.053z" style="fill:#595959;fill-opacity:.53" transform="translate(-94 -88)scale(1.00293)"/><path d="M577.471 876.035c1.501-.353 1.445-.321 2.898.125z" style="fill:#434343;fill-opacity:.18" transform="translate(-94 -88)scale(1.00293)"/><path d="M896.36 567.493c.585 1.387.719 1.298.767 2.866-.586-1.831-.675-1.759-.767-2.866" style="fill:#474747;fill-opacity:.23" transform="translate(-94 -88)scale(1.00293)"/><path d="M895.327 572.49c.618 1.401.75 1.319.81 2.877-.636-1.961-.697-1.868-.81-2.877" style="fill:#484848;fill-opacity:.23" transform="translate(-94 -88)scale(1.00293)"/><path d="M332.478 836.544c1.152.275 1.055.265 2.001.996z" style="fill:#454545;fill-opacity:.54" transform="translate(-94 -88)scale(1.00293)"/><path d="m692.512 836.524-1.993 1.014c.926-.707.869-.726 1.993-1.014" style="fill:#424242;fill-opacity:.54" transform="translate(-94 -88)scale(1.00293)"/><path d="m895.009 577.494.167 2.891c-.426-1.444-.396-1.394-.167-2.891" style="fill:#4c4c4c;fill-opacity:.15" transform="translate(-94 -88)scale(1.00293)"/><path d="M448.397 363.644c-1.309.505-1.313.368-1.736.859l.77-1.654c.416.022.55.773.966.795" style="fill:#a0a0a0" transform="translate(-94 -88)scale(1.00293)"/><path d="m160.532 330.517-1.008 1.995z" style="fill:#3f3f3f;fill-opacity:.54" transform="translate(-94 -88)scale(1.00293)"/><path d="m338.48 839.541 2.013.974z" style="fill:#393939;fill-opacity:.54" transform="translate(-94 -88)scale(1.00293)"/><path d="m898.304 426.511-.204 3.012-.409-1.024z" style="fill:#414141;fill-opacity:.16" transform="translate(-94 -88)scale(1.00293)"/><path d="m336.472 838.558 2.008.983z" style="fill:#3a3a3a;fill-opacity:.54" transform="translate(-94 -88)scale(1.00293)"/><path d="M126.914 561.479c.251 1.573.243 1.529-.21 3.009z" style="fill:#424242;fill-opacity:.16" transform="translate(-94 -88)scale(1.00293)"/><path d="m579.322 355.686-1.581.939c.58-.858.547-.895 1.581-.939" style="fill:#a7a7a7" transform="translate(-94 -88)scale(1.00293)"/><path d="m587.496 873.395 2.994.863z" style="fill:#3e3e3e;fill-opacity:.25" transform="translate(-94 -88)scale(1.00293)"/><path d="M495.538 355.551c.04-.005.3-1.111 1.005-.118.459.646.37.613.742 1.231z" style="fill:#aaa" transform="translate(-94 -88)scale(1.00293)"/><path d="m564.498 877.438 2.989.803z" style="fill:#3f3f3f;fill-opacity:.25" transform="translate(-94 -88)scale(1.00293)"/><path d="m899.365 550.497.864 2.994z" style="fill:#3a3a3a;fill-opacity:.24" transform="translate(-94 -88)scale(1.00293)"/><path d="m901.26 445.513-.776 2.986z" style="fill:#424242;fill-opacity:.22" transform="translate(-94 -88)scale(1.00293)"/><path d="m447.502 875.438-2.991.825z" style="fill:#424242;fill-opacity:.24" transform="translate(-94 -88)scale(1.00293)"/><path d="M125.946 555.475c.216 1.592.221 1.54-.232 3.013z" style="fill:#414141;fill-opacity:.17" transform="translate(-94 -88)scale(1.00293)"/><path d="m526.871 724.802.81 1.442c-.805-.511-.818-.529-.81-1.442" style="fill:#7c7c7c" transform="translate(-94 -88)scale(1.00293)"/><path d="M126.767 427.516c.597 1.863.652 1.796.854 2.987z" style="fill:#404040;fill-opacity:.24" transform="translate(-94 -88)scale(1.00293)"/><path d="m899.247 432.511-.233 3.022c-.199-1.57-.225-1.524.233-3.022" style="fill:#3c3c3c;fill-opacity:.19" transform="translate(-94 -88)scale(1.00293)"/><path d="m898.35 556.494.881 2.997z" style="fill:#3c3c3c;fill-opacity:.24" transform="translate(-94 -88)scale(1.00293)"/><path d="M472.508 113.214c1.551-.188 1.497-.14 2.988.365z" style="fill:#444;fill-opacity:.25" transform="translate(-94 -88)scale(1.00293)"/><path d="M903.889 513.518c.319 1.447.386 1.34.305 2.841z" style="fill:#626262;fill-opacity:.09" transform="translate(-94 -88)scale(1.00293)"/><path d="M125.743 433.516c.454 1.526.416 1.443.223 3.014z" style="fill:#3f3f3f;fill-opacity:.18" transform="translate(-94 -88)scale(1.00293)"/><path d="M486.508 112.193c1.553-.217 1.499-.17 2.993.29z" style="fill:#4c4c4c;fill-opacity:.23" transform="translate(-94 -88)scale(1.00293)"/><path d="M553.523 112.823" style="fill:#404040;fill-opacity:.22" transform="translate(-94 -88)scale(1.00293)"/><path d="M468.63 112.798c1.495-.065 1.44.013 2.86.349z" style="fill:#636363;fill-opacity:.08" transform="translate(-94 -88)scale(1.00293)"/><path d="M124.741 439.515c.438 1.505.405 1.42.23 3.006z" style="fill:#414141;fill-opacity:.18" transform="translate(-94 -88)scale(1.00293)"/><path d="m562.512 113.732 1.862.074-2.881.409z" style="fill:#666;fill-opacity:.09" transform="translate(-94 -88)scale(1.00293)"/><path d="m900.248 438.515-.751 2.985z" style="fill:#494949;fill-opacity:.21" transform="translate(-94 -88)scale(1.00293)"/><path d="m562.512 113.732-1.019.483-1.996.46z" style="fill:#424242;fill-opacity:.22" transform="translate(-94 -88)scale(1.00293)"/></svg>